<?xml version="1.0" encoding="UTF-8"?> <svg xmlns="http://www.w3.org/2000/svg" xmlns:xlink="http://www.w3.org/1999/xlink" width="412px" height="313px" viewBox="0 0 412 313" version="1.1"><title>Group 2</title><g id="✨-Design-1440px" stroke="none" stroke-width="1" fill="none" fill-rule="evenodd"><g id="SWD-1440px" transform="translate(-514.000000, -2772.000000)" fill="#FF7200"><g id="Group-2" transform="translate(514.726399, 2772.807820)"><path d="M154.750239,34.5603739 C155.014648,34.7503271 155.246374,34.9820535 155.436327,35.2464628 L249.411688,166.057469 C250.378382,167.40308 250.071209,169.277573 248.725599,170.244268 C248.215522,170.610709 247.603302,170.807824 246.975244,170.807824 L196.922,170.807 L196.922657,275 C196.922657,276.656854 195.579512,278 193.922657,278 L112.07711,278 C110.420256,278 109.07711,276.656854 109.07711,275 L109.077,170.807 L59.0245236,170.807824 C57.3676693,170.807824 56.0245236,169.464678 56.0245236,167.807824 C56.0245236,167.179765 56.2216381,166.567545 56.5880799,166.057469 L150.56344,35.2464628 C151.530134,33.9008521 153.404628,33.5936796 154.750239,34.5603739 Z" id="Triangle-2" transform="translate(153.000000, 156.000000) rotate(40.000000) translate(-153.000000, -156.000000) "></path><path d="M335.420729,59.6328724 C335.685138,59.8228256 335.916864,60.0545519 336.106818,60.3189613 L380.169935,121.653557 C381.136629,122.999168 380.829457,124.873661 379.483846,125.840356 C378.97377,126.206797 378.36155,126.403912 377.733491,126.403912 L355.631432,126.403 L355.631761,177 C355.631761,178.656854 354.288615,180 352.631761,180 L314.708987,180 C313.052133,180 311.708987,178.656854 311.708987,177 L311.708432,126.403 L289.607256,126.403912 C287.950402,126.403912 286.607256,125.060766 286.607256,123.403912 C286.607256,122.775853 286.804371,122.163634 287.170813,121.653557 L331.23393,60.3189613 C332.200624,58.9733506 334.075118,58.6661781 335.420729,59.6328724 Z" id="Triangle-2-Copy" transform="translate(333.670432, 119.000000) rotate(40.000000) translate(-333.670432, -119.000000) "></path></g></g></g></svg> 