<svg width="347" height="68" xmlns="http://www.w3.org/2000/svg"><g fill="#0A0B09" fill-rule="evenodd"><path d="M36.917 45.569h7.381v-7.608h-7.381z"/><path d="M47.985 49.371H33.227V15.146h-7.378v22.815h-3.686V26.553h-7.379v11.408h-3.693V22.746h11.072V11.338h14.754v22.82h11.068v15.213zM0 60.688h59.075V.02H0v60.668zm87.677-48.569c.053-.43.376-.805.967-.805h.857c.43 0 .752.215.913.536l11.806 25.33h.161l11.806-25.33c.162-.321.429-.536.912-.536h.859c.59 0 .912.375.966.805l6.332 36.061c.161.752-.269 1.236-.966 1.236h-4.883c-.483 0-.913-.432-1.019-.805l-3.167-20.34h-.161l-9.391 21.09c-.107.323-.43.59-.912.59h-.967c-.482 0-.751-.267-.912-.59l-9.498-21.09h-.161l-3.113 20.34c-.053.373-.482.805-.965.805H82.31c-.698 0-1.126-.484-1.019-1.236l6.386-36.061m40.774 16.85c0-.59.484-1.02 1.02-1.02h4.454c.537 0 1.019.43 1.019 1.02v19.425c0 .538-.482 1.022-1.019 1.022h-4.454c-.536 0-1.02-.484-1.02-1.022V28.969zm-.483-12.342c0-2.039 1.611-3.703 3.65-3.703 2.092 0 3.756 1.664 3.756 3.703 0 2.039-1.664 3.701-3.756 3.701-2.039 0-3.65-1.662-3.65-3.701zm22.984 24.256c2.2 0 3.703-1.61 3.703-3.863 0-2.256-1.503-3.866-3.703-3.866-2.146 0-3.756 1.61-3.756 3.866 0 2.253 1.61 3.863 3.756 3.863zm-.215 19.803c3.006 0 4.991-1.344 4.991-3.383 0-.965-.75-2.629-3.916-2.629-1.182 0-2.362.055-3.489.215-.644.215-2.308.965-2.308 2.629 0 1.879 1.825 3.168 4.722 3.168zm-7.674-18.891s-1.609-1.824-1.609-5.045c0-4.99 4.025-9.336 9.338-9.336h9.766c.59 0 1.02.428 1.02 1.018v1.771c0 .375-.216.805-.591.912l-3.005.967s2.146 1.664 2.146 5.473c0 4.24-3.541 8.425-9.176 8.425-2.039 0-3.434-.429-4.293-.429-.751 0-1.985.752-1.985 2.039 0 1.127.966 1.826 2.146 1.826h6.868c4.885 0 8.856 2.789 8.856 7.512 0 4.937-3.971 9.123-11.752 9.123-7.943 0-10.948-3.918-10.948-7.352 0-3.22 2.683-4.777 3.219-5.097v-.163c-.912-.267-4.024-1.716-4.024-5.634 0-4.186 4.024-6.01 4.024-6.01zm22.932-28.924c0-.537.483-1.021 1.02-1.021h4.56c.537 0 1.021.484 1.021 1.021v16.313c1.073-.805 3.165-1.77 5.687-1.77 6.816 0 9.605 5.258 9.605 10.678v10.302c0 .538-.483 1.022-1.018 1.022h-4.348a1.02 1.02 0 0 1-1.018-1.022V38.037c0-2.951-1.664-4.828-4.239-4.828-2.47 0-4.133 1.609-4.669 3.811v11.374c0 .59-.323 1.022-1.128 1.022h-4.453c-.537 0-1.02-.484-1.02-1.022V12.871m28.074 20.713h-1.824c-.537 0-.967-.482-.967-1.02v-3.595c0-.59.43-1.02.967-1.02h1.824v-5.957c0-.535.483-1.019 1.02-1.019l4.4-.053c.537 0 .965.482.965 1.019v6.01h4.723c.59 0 1.019.43 1.019 1.02v3.595c0 .538-.429 1.02-1.019 1.02h-4.723v8.586c0 1.504.807 1.719 1.664 1.719.912 0 2.039-.377 2.631-.592.59-.215 1.018.055 1.18.592l1.072 3.379c.217.537-.053 1.074-.59 1.289-.267.16-3.756 1.394-6.385 1.394-4.132 0-5.957-2.576-5.957-6.922v-9.445m15.489-4.238c-.323-.7.107-1.397.912-1.397h4.83c.484 0 .752.27.912.592l5.42 12.127h.055l5.367-12.127c.267-.537.642-.592 1.287-.592h4.293c.859 0 1.287.697.912 1.397l-16.422 35.523c-.16.322-.482.645-.912.645h-4.615c-.805 0-1.287-.698-.912-1.45l7.621-16.152-8.748-18.566m38.533 14.81c2.846 0 4.885-2.468 4.885-5.474 0-3.004-2.202-5.473-5.207-5.473-2.684 0-4.186 1.232-4.186 1.232v6.227c.375 1.287 1.664 3.488 4.508 3.488zm-10.893-31.285c0-.537.483-1.021 1.02-1.021h4.56c.537 0 1.02.484 1.02 1.021v15.508c.965-.375 2.629-.965 4.777-.965 6.385 0 10.623 4.99 10.623 11.268 0 6.172-4.453 11.269-10.302 11.269-4.508 0-7.03-3.219-7.03-3.219l-.537 1.662c-.16.59-.537 1.022-1.019 1.022h-2.092c-.537 0-1.02-.484-1.02-1.022V12.871zm23.153 16.475c-.323-.7.105-1.397.91-1.397h4.83c.484 0 .752.27.912.592l5.422 12.127h.053l5.367-12.127c.267-.537.642-.592 1.287-.592h4.293c.859 0 1.289.697.912 1.397l-16.42 35.523c-.162.322-.484.645-.914.645h-4.613c-.807 0-1.289-.698-.912-1.45l7.619-16.152-8.746-18.566m29.656 4.238h-1.824c-.536 0-.965-.482-.965-1.02v-3.595c0-.59.429-1.02.965-1.02h1.824v-5.957c0-.535.484-1.019 1.021-1.019l4.401-.053c.535 0 .965.482.965 1.019v6.01h4.722c.59 0 1.02.43 1.02 1.02v3.595c0 .538-.43 1.02-1.02 1.02h-4.722v8.586c0 1.504.804 1.719 1.664 1.719.912 0 2.039-.377 2.629-.592.589-.215 1.019.055 1.181.592l1.072 3.379c.215.537-.052 1.074-.589 1.289-.27.16-3.756 1.394-6.387 1.394-4.131 0-5.957-2.576-5.957-6.922v-9.445m30.482 2.414c-.162-1.984-1.879-3.648-3.918-3.648-2.146 0-3.918 1.609-4.185 3.648h8.103zm-3.756-8.584c5.528 0 10.036 4.184 10.036 9.981 0 .375-.055 1.072-.108 1.449-.055.535-.537.912-1.019.912h-13.739c.162 2.199 2.039 4.668 5.151 4.668 1.664 0 3.22-.645 4.187-1.342.537-.322 1.02-.43 1.395 0l2.201 2.523c.375.375.482.965-.055 1.395-1.771 1.664-4.508 2.951-7.996 2.951-6.439 0-11-5.097-11-11.269 0-6.063 4.561-11.268 10.947-11.268zm13.364 19.424l1.451-2.897c.213-.537.75-.644 1.232-.375 0 0 2.416 1.288 4.885 1.288 1.072 0 1.824-.43 1.824-1.342 0-.965-.752-1.557-3.595-2.684-4.133-1.609-6.065-3.808-6.065-7.082 0-3.273 2.416-6.332 7.889-6.332 3.166 0 5.474.91 6.601 1.662.483.322.75.912.483 1.449l-1.342 2.737c-.268.484-.859.537-1.289.375 0 0-2.414-1.127-4.453-1.127-1.287 0-1.824.537-1.824 1.236 0 .965.964 1.287 2.951 2.092 4.131 1.609 7.244 3.381 7.244 7.566 0 3.543-3.113 6.547-8.531 6.547-3.543 0-6.01-1.127-7.139-1.984-.322-.27-.535-.699-.322-1.129"/></g></svg>