<svg version="1.1" id="Layer_1" xmlns="http://www.w3.org/2000/svg" x="0" y="0" viewBox="0 0 206 36" xml:space="preserve"><style>.st0{fill-opacity:.7}</style><g id="Group-14" transform="translate(617 52)"><path id="Shape" d="M-610.1-23h-3.2l-3.7-28.5h3.8l1.6 14.8.1.9h.3l.1-.9 1.8-14.8h2.9l1.7 14.8.1.9h.3l.1-.9 1.6-14.8h3.8l-3.7 28.5h-3.2l-1.9-13.5-.2-1.7h-.2l-.2 1.7-1.9 13.5z"/><path id="Shape_1_" d="M-589.4-35.5h-3.2V-23h-4.1v-28.5h4.1v11.8h3.2v-11.8h4.1V-23h-4.1v-12.5z"/><path id="Shape_2_" d="M-577-22.8c-5.5 0-5.4-6.2-5.4-6.2v-16.8s0-6.2 5.4-6.2c5.5 0 5.4 6.2 5.4 6.2V-29c0 .1.1 6.2-5.4 6.2zm0-25c-1.4 0-1.4 2.1-1.4 2.1v16.8s-.1 2.1 1.4 2.1 1.4-2.1 1.4-2.1v-16.8c-.1 0 0-2.1-1.4-2.1z"/><path id="Shape_3_" d="M-568.7-51.6h4.1v24.7h5.4v3.9h-9.5z"/><path id="Shape_4_" d="M-557.4-51.6h9.3v4.3h-5.2v7.5h3.7v4.6h-3.7v7.8h5.2v4.4h-9.3z"/><path id="Shape_5_" d="M-539.1-41.3v-4.4s.1-2.1-1.4-2.1-1.4 2.1-1.4 2.1v17.2s-.1 2.1 1.4 2.1 1.4-2.1 1.4-2.1v-5.2h-1.6v-3.5h5.7V-23h-2.4l-.5-1.4c-.8 1-1.9 1.7-3.2 1.7-5.2 0-4.8-6.2-4.8-6.2v-16.8s0-6.2 5.4-6.2c5.5 0 5.4 6.2 5.4 6.2v4.4h-4z"/><path id="Shape_6_" d="M-524.6-23l-2.1-12h-1.1v12h-4.1v-28.5h4.1c4.8 0 7 2.9 7 8.2 0 2.8-.7 5.4-2.3 6.5l2.6 13.8h-4.1zm-3.2-24.4v8.5c1.1 0 3-.2 3-4.2 0-4.2-1.9-4.3-3-4.3z"/><path id="Shape_7_" d="M-519.3-23l4.2-28.5h5l4.2 28.5h-4l-.8-5.8h-3.9l-.8 5.8h-3.9zm6.9-19.3l-.1-.7h-.2l-.1.7-1.2 9h2.8l-1.2-9z"/><path id="Shape_8_" d="M-503.9-51.6h4.1V-23h-4.1z"/><path id="Shape_9_" d="M-492.3-37.9l-.4-1.4h-.2V-23h-3.7v-28.6h3.6l4 14.9.3 1.3h.2v-16.2h3.8V-23h-3.7z"/><path id="Shape_10_" class="st0" d="M-467.5-24.3h-3.8v-1.4s-1.6 1.7-3 1.7c-2.1 0-2.9-2.3-2.9-4v-13.1c0-1.7.9-4 2.9-4 1.4 0 3 1.7 3 1.7V-52h3.8v27.7zm-3.8-16.1c0-.6-.6-1.2-1.1-1.2s-1 .5-1 1.2v11.6c0 .7.4 1.2 1 1.2.5 0 1.1-.5 1.1-1.2v-11.6z"/><path id="Shape_11_" class="st0" d="M-464.3-52h3.8v3.8h-3.8V-52zm0 27.7v-20.6h3.8v20.6h-3.8z"/><path id="Shape_12_" class="st0" d="M-448-34.3s-.1 5.1-4.9 5.1h-.7c-.3.3-.5.6-.5.9 0 .9 1.5 1 2.9 1.3 2.4.3 5.3 1.2 5.3 4.8 0 4-3.4 5.3-6.5 5.3-3.7-.1-6.1-.9-6.1-4 0-1.4 1.5-2.4 3-3.1-1.2-.3-2.3-1.2-2.3-2.8 0-1.2 1.3-2.5 2.4-3.1-2.2-1.4-2.2-4.5-2.2-4.5V-40s.1-5.2 4.8-5.2c1.9 0 3.1.9 3.8 1.9.5-.5 1.9-1.9 3.1-1.9v3.4c-1 0-1.8.2-2.2.4.2.7.2 1.3.2 1.3l-.1 5.8zm-3.5 11.3l-2-.4c-.8.4-1.4 1-1.4 1.8s.8 1.4 2.5 1.4c1.3 0 2.9-.4 2.9-1.4 0-.6-.2-1.1-2-1.4zm-1.4-18.7c-1.2 0-1.1 1.9-1.1 1.9v5.6s-.1 1.8 1.1 1.8c1.3 0 1.2-1.8 1.2-1.8v-5.6s.1-1.9-1.2-1.9z"/><path id="Shape_13_" class="st0" d="M-444.2-52h3.8v3.8h-3.8V-52zm0 27.7v-20.6h3.8v20.6h-3.8z"/><path id="Shape_14_" class="st0" d="M-432.8-50v5.1h2.6v3.4h-2.6v10.2c0 1.3 0 3.4 1.2 3.4.6 0 1.4-.2 1.4-.2v3.7s-.8.3-2 .3c-4.4 0-4.4-4.5-4.4-6.9v-10.5h-1.9v-3.4h1.9V-50h3.8z"/><path id="Shape_15_" class="st0" d="M-422.3-37.7V-40c0-.8 0-1.9-1-1.9-1.3 0-1 1.9-1.1 3h-3.8v-.9c0-3 2.2-5.5 5.1-5.5 2.5 0 4.6 2 4.6 4.7V-28c0 1.8.1 2.7.3 3.6h-3.7c-.3-.4-.3-1.4-.3-1.7h-.3c-.4.7-1.5 2-3.1 2-1 0-3.1-.8-3.1-5.1 0-6.9 6-7.3 6.4-8.5zm-1.6 10c.9 0 1.6-.6 1.6-1.2v-5.3c-1.8.8-2.7 2.6-2.7 4.6 0 .4.2 1.9 1.1 1.9z"/><path id="Shape_16_" class="st0" d="M-415.5-24.3V-52h3.8v27.7h-3.8z"/></g></svg>