<svg id="Capa_1" enable-background="new 0 0 512 512" height="512" viewBox="0 0 512 512" width="512" xmlns="http://www.w3.org/2000/svg"><g><g><g fill="#fe646f"><path d="m71 157.326 48.161 37.156v-112.487c0-4.962 4.038-9 9-9h255.679c4.962 0 9 4.038 9 9v112.486l48.16-37.155v172.161l.486.291c16.066 9.614 28.785 23.603 37.009 39.896 14.436-31.231 22.505-66.008 22.505-102.674 0-135.31-109.69-245-245-245s-245 109.69-245 245c0 31.719 6.028 62.03 17 89.85l1-.19v-148.66c0-4.962 4.038-9 9-9h33z"/><path d="m302.898 454.169h-203.425l-.363 1c42.502 35.475 97.199 56.831 156.89 56.831 29.874 0 58.496-5.354 84.968-15.144-16.565-10.079-29.9-24.958-38.07-42.687z"/></g><g><path d="m294 413.5c0-.682.012-1.361.026-2.04h-219.026c-2.206 0-4-1.794-4-4v-209.46h-33c-5.523 0-10 4.477-10 10v148.85c15.186 38.504 39.852 72.228 71.11 98.319h204.255c-6.001-12.642-9.365-26.769-9.365-41.669z" fill="#e8b800"/></g><g><g><path d="m217.089 270.033 36.114-35.313c.751-.735 1.745-1.14 2.796-1.14 1.052 0 2.045.405 2.796 1.14l36.114 35.313 144.556-111.524 2.534-3.218-182.776-154.113c-1.862-1.57-4.584-1.57-6.446 0l-182.777 154.113 2.534 3.218z" fill="#fed402"/><g fill="#fac600"><path d="m219.788 71.995 61.712-52.034-22.277-18.783c-1.862-1.57-4.584-1.57-6.446 0l-83.989 70.817z"/><path d="m118.161 114.683-48.161 40.608 48.161 37.156z"/></g><path d="m217.089 270.033 36.115-35.313c.751-.735 1.745-1.14 2.796-1.14 1.052 0 2.045.405 2.796 1.14l36.115 35.313 98.928-76.323v-111.715c0-5.523-4.477-10-10-10h-255.678c-5.523 0-10 4.477-10 10v111.715z" fill="#fff"/><path d="m160 224.726v-142.731c0-5.523 4.477-10 10-10h-41.839c-5.523 0-10 4.477-10 10v110.452z" fill="#eaf6ff"/><path d="m391.5 316c18.473 0 35.762 5.164 50.5 14.124v-174.833l-186 143.498-186-143.498v252.169c0 2.761 2.239 5 5 5h219.013c.561-53.284 44.073-96.46 97.487-96.46z" fill="#fee45a"/><g><path d="m111 407.46v-220.538l-41-31.631v252.169c0 2.761 2.239 5 5 5h41c-2.761 0-5-2.239-5-5z" fill="#fedf30"/></g><path d="m351.938 324.396-92.442-90.391c-1.943-1.9-5.048-1.9-6.991 0l-181.022 177.005c.904.895 2.145 1.45 3.518 1.45h219.013c.412-39.241 24.119-72.996 57.924-88.064z" fill="#fed402"/><path d="m277 251.121-17.504-17.116c-1.943-1.9-5.048-1.9-6.991 0l-181.022 177.005c.904.895 2.145 1.45 3.518 1.45h42c-1.372 0-2.614-.554-3.518-1.45z" fill="#fac600"/></g><g><g><path d="m315.682 136.96h-119.364c-4.142 0-7.5-3.358-7.5-7.5s3.358-7.5 7.5-7.5h119.363c4.142 0 7.5 3.358 7.5 7.5s-3.357 7.5-7.499 7.5z" fill="#60b7ff"/></g><g><path d="m315.682 172.96h-119.364c-4.142 0-7.5-3.358-7.5-7.5s3.358-7.5 7.5-7.5h119.363c4.142 0 7.5 3.358 7.5 7.5s-3.357 7.5-7.499 7.5z" fill="#60b7ff"/></g><g><path d="m315.682 208.96h-119.364c-4.142 0-7.5-3.358-7.5-7.5s3.358-7.5 7.5-7.5h119.363c4.142 0 7.5 3.358 7.5 7.5s-3.357 7.5-7.499 7.5z" fill="#60b7ff"/></g></g></g></g><g><g><circle cx="391.5" cy="413.5" fill="#26a6fe" r="98.5"/></g><path d="m351.217 467.623c-16.505-12.316-27.212-31.992-27.212-54.123s10.707-41.806 27.212-54.123c13.925-21.124 35.75-36.581 61.283-42.126-6.768-1.47-13.792-2.251-21-2.251-54.4 0-98.5 44.1-98.5 98.5s44.1 98.5 98.5 98.5c7.208 0 14.232-.781 21-2.251-25.534-5.546-47.358-21.002-61.283-42.126z" fill="#0593fc"/><path d="m392.591 346.004h-1.091c-37.217 0-67.496 30.278-67.496 67.496s30.278 67.496 67.496 67.496h32.684c4.142 0 7.5-3.358 7.5-7.5s-3.358-7.5-7.5-7.5h-32.684c-28.946 0-52.496-23.549-52.496-52.496s23.549-52.496 52.496-52.496h1.091c28.345 0 51.405 23.06 51.405 51.405v11.112c0 6.579-5.353 11.931-11.932 11.931h-3.612v-51.404c0-4.142-3.358-7.5-7.5-7.5-4.06 0-7.359 3.229-7.488 7.258-6.145-4.557-13.744-7.258-21.964-7.258-20.375 0-36.952 16.577-36.952 36.952s16.577 36.952 36.952 36.952h40.564c14.85 0 26.932-12.081 26.932-26.931v-11.112c0-36.615-29.789-66.405-66.405-66.405zm20.861 89.448h-21.952c-12.104 0-21.952-9.848-21.952-21.952s9.848-21.952 21.952-21.952 21.952 9.848 21.952 21.952z" fill="#fff"/></g></g></svg>