<svg id="Layer_1" enable-background="new 0 0 510 510" height="512" viewBox="0 0 510 510" width="512" xmlns="http://www.w3.org/2000/svg"><g id="XMLID_2037_"><g id="XMLID_1843_"><path id="XMLID_2542_" d="m0 0v345l100.071-79 89.122-110.193-80.193-95.807z" fill="#ff9100"/><path id="XMLID_3532_" d="m510 345c0-19.177 0-325.823 0-345l-98.667 60-90.526 95.807 85.193 111.526z" fill="#ff641a"/><path id="XMLID_3531_" d="m189.193 155.807s-178.685 178.685-189.193 189.193h255l15-67.5-15-67.5-32.903-44.667z" fill="#fdbf00"/><path id="XMLID_3529_" d="m320.807 155.807-38.807 13.193-27 41v135h255c-10.485-10.485-189.193-189.193-189.193-189.193z" fill="#ff9100"/><path id="XMLID_3527_" d="m0 0c5.766 4.748 255 210 255 210l10-105-10-105c-7.193 0-247.807 0-255 0z" fill="#ffda2d"/><path id="XMLID_3521_" d="m510 0c-7.193 0-247.807 0-255 0v210s245.129-201.87 255-210z" fill="#fdbf00"/><path id="XMLID_3402_" d="m180 60v30h75l10-15-10-15c-20.194 0-63.236 0-75 0z" fill="#5a5a5a"/><path id="XMLID_1111_" d="m330 60c-20.194 0-63.236 0-75 0v30h75s0-19.508 0-30z" fill="#444"/></g><g id="XMLID_3632_"><path id="XMLID_3657_" d="m390 465 7-22.5-7-22.5c-14.978 0-29.978 0-45 0l-7 22.5 7 22.5 23 10.666z" fill="#ffda2d"/><path id="XMLID_3656_" d="m345 465-7 22.5 7 22.5h45l9-22.5-9-22.5c-14.978 0-29.978 0-45 0z" fill="#fdbf00"/><path id="XMLID_3653_" d="m446.5 420c-6.836 0-49.619 0-56.5 0v45l45 10.666 45-10.666c0-4.022 0-7.478 0-11.5 0-18.501-14.998-33.5-33.5-33.5z" fill="#ff641a"/><path id="XMLID_3649_" d="m390 510h56.5c18.501 0 33.5-14.998 33.5-33.5 0-4.022 0-7.478 0-11.5-10.889 0-79.039 0-90 0z" fill="#f03800"/><path id="XMLID_3646_" d="m122.859 465 96.441 10.666 95.7-10.666 6.667-22.5-6.667-22.5s-203.019 0-214.929 0z" fill="#ffda2d"/><path id="XMLID_3645_" d="m122.859 465s-22.179 44.391-22.788 45h214.929l6.667-22.5-6.667-22.5c-10.723 0-181.502 0-192.141 0z" fill="#fdbf00"/><path id="XMLID_3642_" d="m315 465v45h30s0-30.019 0-45c-10.492 0-19.508 0-30 0z" fill="#ff9100"/><path id="XMLID_3637_" d="m345 465c0-14.981 0-30.019 0-45-10.492 0-30 0-30 0s0 30.019 0 45z" fill="#fdbf00"/><path id="XMLID_3636_" d="m100.071 420h-.032-.031c-16.155 12.117-50.589 37.941-60 45l47.083 6.166 35.768-6.166c0-19.619-9.446-36.272-22.788-45z" fill="#fcc"/><path id="XMLID_3633_" d="m122.859 465c-10.016 0-72.77 0-82.852 0 16.155 12.117 50.589 37.941 60 45h.031.032c13.349-8.732 22.789-25.389 22.789-45z" fill="#ffb3b3"/></g></g></svg>