<?xml version="1.0" encoding="UTF-8" standalone="no"?>
<svg xmlns:rdf="http://www.w3.org/1999/02/22-rdf-syntax-ns#" xmlns="http://www.w3.org/2000/svg" xmlns:cc="http://web.resource.org/cc/" xmlns:xlink="http://www.w3.org/1999/xlink" xmlns:dc="http://purl.org/dc/elements/1.1/" xmlns:svg="http://www.w3.org/2000/svg" xmlns:inkscape="http://www.inkscape.org/namespaces/inkscape" xmlns:sodipodi="http://sodipodi.sourceforge.net/DTD/sodipodi-0.dtd" xmlns:ns1="http://sozi.baierouge.fr" version="1.1" viewBox="0 0 500 400">
  <desc>Computer Generated Abstract Art</desc>
  <rect y="0" x="0" style="stroke:rgb(255,255,255);stroke-width:3;fill:url(#grad)" height="400" width="500"/>
  <defs>
    <radialGradient id="radgrad" fx="30%" fy="60%" cy="40%" cx="70%" r="70%">
      <stop style="stop-color:rgb(51,51,51)" offset="0"/>
      <stop style="stop-color:rgb(126,255,168)" offset="1"/>
    </radialGradient>
    <linearGradient id="grad" y1="100%" y2="100%">
      <stop style="stop-color:rgb(51,51,51)" offset="0"/>
      <stop style="stop-color:rgb(126,255,168)" offset="1"/>
    </linearGradient>
  </defs>
  <rect y="133" x="89" style="stroke:rgb(51,51,51);stroke-width:3;fill:rgb(147,168,255)" height="115" width="49"/>
  <ellipse cy="265" cx="474" rx="8" ry="105" style="stroke:rgb(51,51,51);stroke-width:3;fill:url(#radgrad)"/>
  <ellipse cy="364" cx="3" rx="135" ry="9" style="stroke:rgb(51,51,51);stroke-width:3;fill:url(#radgrad)"/>
  <rect y="88" x="37" style="stroke:rgb(51,51,51);stroke-width:3;fill:rgb(255,147,231)" height="148" width="66"/>
  <ellipse cy="331" cx="1" rx="44" ry="19" style="stroke:rgb(51,51,51);stroke-width:3;fill:rgb(84,255,126)"/>
  <path style="stroke:rgb(51,51,51);stroke-width:3;fill:url(#grad)" d="m334.48 236.64-9.8 4.71-10.51 4.64-11.12 4.57-11.6 4.49-11.99 4.4-12.24 4.3-12.37 4.2-12.38 4.1-12.28 3.98-12.03 3.85-11.68 3.73-11.2 3.6-10.63 3.45-9.93 3.31-9.14 3.16-8.25 3.01-7.3 2.84-6.26 2.68-5.15 2.51-4.01 2.34-2.82 2.16-1.59 1.98-0.37 1.8 0.88 1.61 2.11 1.42 3.31 1.23 4.49 1.04 5.63 0.84 6.69 0.65 7.71 0.45 8.63 0.25 9.48 0.05 10.23-0.14 10.88-0.34 11.42-0.54 11.84-0.74 12.15-0.93 12.33-1.13 12.39-1.32 12.34-1.51 12.14-1.7 11.85-1.88 11.41-2.06 10.88-2.24 10.23-2.42 9.48-2.59 8.64-2.76 7.7-2.92 6.7-3.07 5.62-3.23 4.49-3.38 3.32-3.52 2.1-3.66 0.88-3.79-0.36-3.91-1.6-4.03-2.82-4.15-4-4.25-5.16-4.34-6.26-4.44-7.29-4.53-8.26-4.6-9.14-4.68-9.93-4.73-10.62-4.79-11.21-4.84-11.68-4.88-12.03-4.91-12.27-4.93-12.39-4.95-12.37-4.96-12.24-4.96-11.98-4.95-11.61-4.94-11.11-4.91-10.52-4.88-9.8-4.84-9-4.8-8.1-4.74-7.13-4.68-6.07-4.61-4.97-4.53-3.81-4.45-2.61-4.35-1.39-4.26-0.16-4.15 1.09-4.04 2.31-3.93 3.52-3.8 4.68-3.66 5.81-3.53 6.87-3.39 7.87-3.25 8.78-3.08 9.61-2.936 10.35-2.77 10.98-2.602 11.49-2.432 11.9-2.256 12.19-2.079"/>
  <circle cy="332.71" cx="366.06" r="15" style="stroke:rgb(51,51,51);stroke-width:3;fill:url(#grad)"/>
  <circle cy="334.77" cx="397.01" r="12" style="stroke:rgb(51,51,51);stroke-width:3;fill:url(#grad)"/>
  <circle cy="336.16" cx="387.88" r="3" style="stroke:rgb(51,51,51);stroke-width:3;fill:url(#radgrad)"/>
  <circle cy="336.89" cx="399.59" r="15" style="stroke:rgb(51,51,51);stroke-width:3;fill:url(#radgrad)"/>
  <circle cy="336.94" cx="348.05" r="12" style="stroke:rgb(51,51,51);stroke-width:3;fill:url(#grad)"/>
  <circle cy="336.33" cx="365.17" r="9" style="stroke:rgb(51,51,51);stroke-width:3;fill:url(#radgrad)"/>
  <circle cy="335.04" cx="416.91" r="12" style="stroke:rgb(51,51,51);stroke-width:3;fill:rgb(255,147,126)"/>
  <circle cy="333.1" cx="423.21" r="3" style="stroke:rgb(51,51,51);stroke-width:3;fill:url(#grad)"/>
  <circle cy="330.5" cx="359.03" r="15" style="stroke:rgb(51,51,51);stroke-width:3;fill:url(#grad)"/>
  <circle cy="327.27" cx="368.37" r="6" style="stroke:rgb(51,51,51);stroke-width:3;fill:rgb(255,147,126)"/>
  <circle cy="323.41" cx="370.21" r="15" style="stroke:rgb(51,51,51);stroke-width:3;fill:url(#grad)"/>
  <circle cy="318.95" cx="430.58" r="9" style="stroke:rgb(51,51,51);stroke-width:3;fill:url(#radgrad)"/>
  <circle cy="313.9" cx="356.48" r="6" style="stroke:rgb(51,51,51);stroke-width:3;fill:rgb(255,147,126)"/>
  <circle cy="308.3" cx="410.98" r="9" style="stroke:rgb(51,51,51);stroke-width:3;fill:url(#grad)"/>
  <circle cy="302.16" cx="417.12" r="3" style="stroke:rgb(51,51,51);stroke-width:3;fill:rgb(255,147,126)"/>
  <circle cy="295.53" cx="404.96" r="9" style="stroke:rgb(51,51,51);stroke-width:3;fill:url(#grad)"/>
  <circle cy="288.42" cx="338.6" r="9" style="stroke:rgb(51,51,51);stroke-width:3;fill:url(#radgrad)"/>
  <circle cy="280.89" cx="381.12" r="9" style="stroke:rgb(51,51,51);stroke-width:3;fill:rgb(255,147,126)"/>
  <circle cy="272.96" cx="359.64" r="6" style="stroke:rgb(51,51,51);stroke-width:3;fill:rgb(255,147,126)"/>
  <circle cy="264.67" cx="290.25" r="15" style="stroke:rgb(51,51,51);stroke-width:3;fill:rgb(255,147,126)"/>
  <circle cy="256.06" cx="351.1" r="6" style="stroke:rgb(51,51,51);stroke-width:3;fill:rgb(255,147,126)"/>
  <circle cy="247.18" cx="269.3" r="12" style="stroke:rgb(51,51,51);stroke-width:3;fill:rgb(255,147,126)"/>
  <circle cy="238.07" cx="261" r="6" style="stroke:rgb(51,51,51);stroke-width:3;fill:rgb(255,147,126)"/>
  <circle cy="228.77" cx="237.35" r="9" style="stroke:rgb(51,51,51);stroke-width:3;fill:url(#radgrad)"/>
  <circle cy="219.33" cx="219.47" r="3" style="stroke:rgb(51,51,51);stroke-width:3;fill:rgb(255,147,126)"/>
  <circle cy="209.8" cx="281.54" r="6" style="stroke:rgb(51,51,51);stroke-width:3;fill:rgb(255,147,126)"/>
  <circle cy="200.22" cx="265.69" r="3" style="stroke:rgb(51,51,51);stroke-width:3;fill:url(#radgrad)"/>
  <circle cy="190.64" cx="233.07" r="9" style="stroke:rgb(51,51,51);stroke-width:3;fill:rgb(255,147,126)"/>
  <circle cy="181.1" cx="158.83" r="6" style="stroke:rgb(51,51,51);stroke-width:3;fill:rgb(255,147,126)"/>
  <path style="fill:url(#grad)" d="m392.27 93.404-5.27-5.758-6.64-5.208-7.94-4.632-9.16-4.034-10.3-3.415-11.33-2.78-12.24-2.132-13.03-1.473-13.7-0.806-14.22-0.136-14.61 0.534-14.85 1.203-14.93 1.866-14.88 2.518-14.67 3.16-14.31 3.785-13.81 4.391-13.18 4.977-12.42 5.539-11.52 6.072-10.51 6.575-9.4 7.05-8.2 7.48-6.91 7.89-5.56 8.25-4.14 8.57-2.68 8.85-1.21 9.08 0.28 9.28 1.78 9.43 3.24 9.52 4.69 9.58 6.07 9.59 7.41 9.54 8.67 9.46 9.84 9.32 10.91 9.15 11.87 8.92 12.72 8.65 13.44 8.35 14.02 7.99 14.47 7.61 14.76 7.17 14.92 6.72 14.92 6.22 14.77 5.69 14.48 5.14 14.04 4.56 13.46 3.96 12.75 3.34 11.9 2.7 10.95 2.06 9.87 1.39 8.71 0.73 7.46 0.05 6.12-0.61 4.74-1.29 3.3-1.94 1.82-2.6 0.34-3.23-1.16-3.86-2.63-4.46-4.1-5.05-5.5-5.6-6.86-6.14-8.16-6.63-9.36-7.11-10.48-7.53-11.48-7.93-12.39-8.29-13.15-8.61-13.8-8.88-14.3-9.11-14.65-9.3-14.88-9.44-14.93-9.53-14.85-9.58-14.62-9.58-14.24-9.54-13.72-9.45-13.06-9.3-12.27-9.12-11.36-8.89-10.33-8.62-9.21-8.31-7.99-7.95-6.68-7.55-5.32-7.12-3.9-6.66-2.44-6.158-0.96-5.628 0.54-5.072 2.02-4.491 3.49-3.886 4.92-3.264 6.31-2.626 7.62-1.974 8.87-1.314 10.03-0.645 11.08 0.025"/>
  <metadata>
    <rdf:RDF>
      <cc:Work>
        <dc:format>image/svg+xml</dc:format>
        <dc:type rdf:resource="http://purl.org/dc/dcmitype/StillImage"/>
        <cc:license rdf:resource="http://creativecommons.org/licenses/publicdomain/"/>
        <dc:publisher>
          <cc:Agent rdf:about="http://openclipart.org/">
            <dc:title>Openclipart</dc:title>
          </cc:Agent>
        </dc:publisher>
        <dc:title>Abstract Art 6</dc:title>
        <dc:date>2011-02-05T19:20:44</dc:date>
        <dc:description>Abstract Art created using AskWhy! Original SVG Abstract Art (http://www.askwhy.co.uk/awgames/svgart.php)</dc:description>
        <dc:source>https://openclipart.org/detail/117121/abstract-art-6-by-meticulous</dc:source>
        <dc:creator>
          <cc:Agent>
            <dc:title>meticulous</dc:title>
          </cc:Agent>
        </dc:creator>
        <dc:subject>
          <rdf:Bag>
            <rdf:li>abstract</rdf:li>
            <rdf:li>abstract art</rdf:li>
            <rdf:li>meticulous</rdf:li>
          </rdf:Bag>
        </dc:subject>
      </cc:Work>
      <cc:License rdf:about="http://creativecommons.org/licenses/publicdomain/">
        <cc:permits rdf:resource="http://creativecommons.org/ns#Reproduction"/>
        <cc:permits rdf:resource="http://creativecommons.org/ns#Distribution"/>
        <cc:permits rdf:resource="http://creativecommons.org/ns#DerivativeWorks"/>
      </cc:License>
    </rdf:RDF>
  </metadata>
</svg>