<?xml version="1.0" encoding="utf-8"?>
<!-- Generator: Adobe Illustrator 22.0.1, SVG Export Plug-In . SVG Version: 6.00 Build 0)  -->
<svg version="1.1" id="Capa_1" xmlns="http://www.w3.org/2000/svg" xmlns:xlink="http://www.w3.org/1999/xlink" x="0px" y="0px"
	 viewBox="0 0 841.9 595.3" style="enable-background:new 0 0 841.9 595.3;" xml:space="preserve">
<style type="text/css">
	.st0{fill:#F9DF84;}
	.st1{fill:#2EAAE2;}
	.st2{opacity:0.51;}
	.st3{fill:#2C91AC;}
	.st4{fill:#C5CF83;}
	.st5{fill:#B0B573;}
	.st6{fill:#FFFFFF;}
	.st7{fill:#D9D9D9;}
	.st8{opacity:0.7;fill:#575756;}
	.st9{opacity:0.35;fill:url(#SVGID_1_);}
	.st10{opacity:0.65;fill:#575756;}
	.st11{fill:#ECECEC;}
	.st12{fill:#B1B1B1;}
	.st13{opacity:0.56;fill:#D9D9D9;}
</style>
<rect class="st0" width="841.9" height="595.3"/>
<g>
	<g>
		<circle class="st1" cx="420.9" cy="295.7" r="135.8"/>
	</g>
	<g class="st2">
		<path class="st3" d="M420.9,159.9c-91.5,172.3,74.9,271.5,0,271.5s-135.8-60.8-135.8-135.8S346,159.9,420.9,159.9z"/>
	</g>
	<path class="st4" d="M442.9,175.7c0.7,0,1.3-0.1,1.6-0.2C444,175.5,443.5,175.5,442.9,175.7z"/>
	<path class="st4" d="M442.9,175.7C442.9,175.7,442.9,175.7,442.9,175.7L442.9,175.7C442.8,175.7,442.8,175.7,442.9,175.7z"/>
	<path class="st4" d="M359.6,180.8c-0.1,0.1,0.1,0.1,0.4,0.2l0.2-0.1C360.1,180.9,359.8,180.7,359.6,180.8z"/>
	<path class="st5" d="M389.2,206.2c2.4-6.1,3.7-12.3,6-18.5c0.9-2.4,2.1-5,3.9-6.9c1.3-1.4,3.1-2.6,2.5-4.8
		c-0.7-2.5-4.9-0.1-6.5-1.4c-1.6-1.3,2.1-3.4,0.9-5.2c-1.5-2.4-5.6-3.3-8.2-3c-1.9,0.3-3.5,1.7-5.2,2.4c-2.4,0.8-3.8,0-5.8,1.8
		c-3.2,3-8.4,1.6-11.5,4.7c-1.2,1.2-1.9,2.9-3,4.2c-0.4,0.5-0.9,1.3-1.5,1.5c-0.1,0-0.4,0-0.6,0l-0.2,0c-1,0-1.3,1-2.3,1.5
		c-3.5,1.7-7,2.8-6.6,7.8c0.1,1.5,0.2,4,1.8,4.8c1.3,0.7,3.5-0.6,4.1,1.1c0.8,2.4-0.8,9.4-1.9,11.4c-0.8,1.4-2.6,3-2.8,4.6
		c-0.4,3.3,4.2,2.2,3.5,4.2c-0.9,2.5-3.8,2.9-4.8,5.5c-1.4,3.9-0.4,8.5,1.3,12.2c0.5,1.1,1.2,3.1,2.6,3.5c2,0.5,3.8-1.1,4.9-2.6
		c0.7-1,1-2.1,1.6-3.1c1.1-1.9,5-6.6,6.6-8.2c0.7-0.7,1.7-0.9,2.4-1.5c2.7-2.5,5-4.4,8.4-6c1.8-0.8,4-1.1,5.6-2.3
		C386.8,212.4,388.1,208.9,389.2,206.2z"/>
	<path class="st4" d="M360.4,180.9l-0.1,0C360.3,181,360.4,180.9,360.4,180.9z"/>
	<path class="st5" d="M391.9,227c1-1.7,0.9-4.3-1.3-4.3l0.5-0.2c0.1,0.1,0.1-0.4-0.3-0.3c-1.3,0.7-1.7,1-3.3,1
		c-2.3,0-3.8-1.9-4.7-1.7c-2.4,0.3-3.2,3.3-2.4,5.2C382.7,232,389.1,231.6,391.9,227z"/>
	<path class="st4" d="M419,190.5c0.7,1.3,0.6,3.1,1.2,4.4c0.1,0.2,0.9,1,1.2,0.6c0.5-0.5,2.2-1,2.5-1.7c0.3-0.7-0.5-3.1,0-3.4
		c1.8-0.9,3.4,1.7,4.6-0.6c1.4-2.8-2.4-2.6-3.3-3.4c-0.3-0.3,0-1.4-0.2-1.8c-0.2-0.4-3.7-2.5-3.8-2.5l-0.2,0.7
		c0.4-1.1-1.3-0.6-1.9-0.5c-1.4,0.4-3.5,1.3-3.7,3C415.1,187.7,418.2,188.8,419,190.5z"/>
	<path class="st4" d="M424.5,182.7c1,0.4,3.5,3.7,4.8,1.6c1.2-1.8-1-3.4-1-4.1l0.3,0c0.1,0.2-0.1-0.5-0.3-0.6
		c-0.4-0.3-1-0.6-1.5-0.6c-1.3-0.2-5,0.3-4.7,2.1C422.1,181.9,423.8,182.4,424.5,182.7z"/>
	<path class="st5" d="M330.7,195.1c1.7,3.5,8.2,2.5,10.8,1.3c0.7-0.3,1.9-0.5,2.2-1.4c0.3-1-0.7-1.6-1.3-2.2c-1.6-1.6-2.3-1-4.5-1.2
		c-0.3,0-1.7-0.5-0.8-0.9c2.4-1.2,5,0.9,7.4,0.1c1.7-0.6,3.1-2.7,4.6-3.7c1.6-1.1,2.8-2.5,4.3-3.8c1.1-0.8,2.4-1.2,3.4-2.1
		c1.8-1.5,3.2-3.4,5.1-4.8c2.1-1.6,4.1-3.1,6.3-4.6c0.7-0.5,1.4-1.5,1.5-1.8c0-0.1-0.1-0.1-0.1-0.2c-14.5,5.9-27.7,14.2-39.2,24.4
		C330.6,194.6,330.6,194.8,330.7,195.1z"/>
	<path class="st4" d="M369.9,170c0,0,0,0.1,0,0.1c0,0,0,0,0,0L369.9,170z"/>
	<path class="st4" d="M369.9,170.1l0,0.3C370,170.4,370,170.3,369.9,170.1z"/>
	<path class="st5" d="M340.9,217.7c0.2-1.7,1.4-4.3,1.3-5.7c-0.1-1.1-1-1.9-1.3-2.9c-0.2-0.6-0.1-1.3-0.4-2c-0.3-0.7-1.2-1-1.3-1.7
		c-0.2-1.5,1.1-3.8,0.7-5.2c-0.1-0.4-0.7-0.5-1.1-0.5c-1.3-0.2-3.2-0.4-4.4-0.4c-0.4,0-0.9,0-1.3,0.1c-0.4,0-1.5,0.7-3.1,1.9
		c-0.7,0.5-1.6,0.6-2.2,1.1c-1.7,1.1-3.4,2.6-4.8,4c-0.6,0.6-1.3,0.8-1.6,1.6c-0.3,1,0.8,1.1,1.5,0.9c1.4-0.3,3.6-2,5-1.3
		c1.4,0.7,1.6,2.8,2.6,3.8c0.3,0.3-0.2,1.4-0.1,1.9c0.2,1,0.8,1.3,1,2.1c0.7,2.8-1.7,5.8-4.1,6.9c-0.9,0.4-3.7,1.7-3.4,3
		c0.3,1.1,2.9,1,3.5,2.2c0.4,0.8,0.4,3.9,1.5,4.1c3,0.7,6.2-0.1,7.7-3c0.3-0.5,0.2-2.6,0.4-2.8c0.6-0.6,1.7,0.2,2.4-0.2
		c1.4-0.9,2.8-2.7,3.2-4.3C343.1,219.8,340.8,219.2,340.9,217.7z"/>
	<path class="st5" d="M286.7,296.2c1-1,0.9-2.9,2.7-2.5c1.6,0.3,3.8,1.6,4.4,3.4c0.4,1.1,1.1,5.4,3,5.2c1.5-0.2,1.2-1.6,1.2-2.9
		c0-2-0.6-5.7,0.7-7.5c1.6-2.1,4.1-3.2,5.7-5.4c1.3-1.9,1.2-4.9,2.8-6.5c1-1,2.2-2.2,3.5-2.9c1.4-0.7,3-0.6,4.1-1.9
		c0.5-0.6,0.9-1.3,0.8-2.1c-0.1-0.6-1-1.4-0.5-2.1c0.8-1.1,3.9-2.4,5.3-1.7c0.6,0.3,1.3,1.4,1.9,1.6c0.7,0.2,1.5-0.2,2.1-0.4
		c1.7-0.5,5.2-1.2,6.1-3.1c1.2-2.5-2.5-2.7-3.7-2.9c-0.4,0-1.1,0.1-1.4-0.3c-0.5-0.9,0.8-1.7-0.4-2.5c-0.5-0.4-2.3-1.2-2.1-1.9
		c0.6-3.5,4.3-0.7,6.4-0.9c1.4-0.2,2.8-3.1,4.5-1.7c0.8,0.6-0.2,1.5-0.6,2.1c-0.8,1.1-2.5,3.2-1,4.5c1.4,1.2,6.4,2.6,7.7,0.6
		c1-1.4-0.9-4.7-2-5.5c-0.6-0.4-1.7-0.8-1.8-1.6c-0.1-0.7,0.7-0.6,1-0.9c0.7-0.7,2.4-3.2,1.9-4.3c-1.7-3.3-5.4-5.2-5.7-9.4
		c-0.1-1.5,0.4-3.1,1-4.5c0.2-0.5,0.5-1.2-0.1-1.5c-0.1-0.1-0.8-0.3-0.9-0.3c-1.9-0.5-1.4,0.6-2,2.1c-0.3,0.7-1.7,2-2.5,1.6
		c-2.2-1.1-1.3-5.8-2-7.7c-0.3-0.9-2-1.2-2.8-1.5c-2.9-1.3-5.2,3.4-6,5.2c-0.5,1.1-1.3,2-1.7,3.1c-0.7,1.8-0.8,3.6-1.6,5.4
		c-0.8,1.9-2.6,2.6-3.6,4.2c-1,1.8,0.9,4.1-1.8,5.5c-1,0.5-1.7-0.2-1.9-1.1c-0.2-1.3,0.7-2.8,0.5-4.2c-0.2-1.4-1.7-3.3-2.5-4.5
		c-1-1.6-3-1.7-3.9-3.3c-0.6-1.1-0.6-2.5-1.2-3.6c1.7-1,2.5-2.5,4.3-3.8c0.7-0.5,1-1.1,1.5-1.7c0.5-0.7,1.4-1.5,2.2-2
		c1.3-0.7,2.2-2,3.5-2.5c2.2-0.9,2.8,0.7,3.9,2.2c0.4,0.6,1.2,1.8,2.1,1.5c2.6-0.9,4.5-4.6,2.6-6.8c-0.5-0.6-3-0.9-2.3-1.8
		c2.7-4,9.2-4.7,10.4-10c0.4-1.6-0.6-3.8-2.5-2.7c-1.9,1.2-2.4,4-5.2,3c-0.6-0.2-1-0.4-1.3-1.1c-0.6-1.5,0.6-3.5,1.5-4.7
		c2.4-3,8.1-5.1,9.7-8.7c0.6-1.3-0.5-2-1.5-2.5c-26.9,24.8-43.8,60.4-43.8,99.8c0,0.4,0,0.8,0,1.2
		C285.6,296.9,286.5,296.4,286.7,296.2z"/>
	<path class="st5" d="M305.3,308.5c-1.1-0.8-2.2-1.2-3.3-1.1c-0.7-0.3-1.6-0.3-2.3-0.8c-2.1-1.3-8.7-4.2-9.1,0.3
		c-0.2,2.7,4.9,1.1,6.8,1.9c1.6,0.7,6.6,4.3,8.4,3.4C307.4,311.4,306.4,309.3,305.3,308.5z"/>
	<path class="st5" d="M302.1,313.4C302.1,313.4,302,313.3,302.1,313.4c-0.1-0.3-1.6-1-1.9-0.8c-2.4,1.2,1.3,3.2,2.7,2.9
		C304.3,315.2,303.4,314,302.1,313.4z"/>
	<path class="st5" d="M312.4,311.5c-1,0-1.5,0.6-2.6-0.1c-0.8-0.6-2.1-2.2-0.1-1.8l-0.6-0.2c-1.2,0-2.4,3-2.1,4.1
		c0.3,1.1,6,1.4,6.8,0.6C314.2,313.6,312.7,311.5,312.4,311.5z"/>
	<path class="st4" d="M315.7,314.5c-0.6,1,3.1-0.1,2-1.3C316.6,312.1,315.2,314.2,315.7,314.5z"/>
	<path class="st5" d="M340.8,400.6c-0.1-0.3-0.8,0-0.8-0.3c0-0.8,0.9-1.9,1.4-2.4c1.2-1.2,3.4-2.4,3.8-4.5c0.2-1-1.7-1.2-1.1-2.4
		c0.4-0.7,1.5,0.5,1.8,0c1.5-3.1,3.4-5.8,4.5-9c0.5-1.4-0.7-2.4,0.1-4.1c1.1-2.2,4.1-1.9,5.5-3.6c2-2.3,2.9-6.8,2.5-9.8
		c-0.1-0.7-0.6-1.1-0.6-1.8c0-3.8,7.8-8.7,3.8-12.7c-0.4-0.4-1.4-1.8-2-1.9c-0.9-0.2-1.6,0.8-2.6,0.3c-1.1-0.5-1.8-1.4-2.8-1.9
		c-3.2-1.6-4-0.6-7.8-3.2c-0.9-0.6-2.7-0.2-3.8-0.9c-0.3-0.2-5.2-5.4-5.3-5.6c-0.3-0.7,0.2-2.6-0.6-3.2c-1.5-1-4.7,0.4-7.4-1.5
		c-1.6-1.1-4.4-2.4-5.6-3.8c-1-1.2-0.8-2.8-2.1-3.5c-1.1-0.5-5.7,0.1-7.2,0.1c-0.6,0-2.3-0.2-2.6,0.1c-0.1,0.1,0.2,0.3,0.1,0.2
		c-1.2-1.2-0.5-2.9-2.6-3.6c-1.7-0.6-3.2,1.4-4.1,2.5c-0.3,0.3-1.6,1.7-1.2,1.4l0.2,0c-0.3,0-1,0.7-1.8,0.7c-0.6,0-1.2,0-1.8,0.2
		c-1.2-1.2-5-2-6.2-3.1c-2.6-2.6,1.7-7.7-5-7.7c-0.7,0-1.6,0.1-2.4,0.2c-0.2,0-0.4,0-0.5,0.1c0.2,1.5,0.5,3.1,0.8,4.6
		c0.5,0.2,1,0.3,1.4,0.7c3.1,3.1,1.8,4.6,6.4,6.3c0.9,0.3,2.8,1.1,4.2,0.9c0.1,0.1,0.2,0.1,0.2,0.2c0.5,1,3.4,5,3.2,5.9
		c-1.1,3.3-5.8,5-3.6,9.5c0.7,1.4,1.1,3.8,2.3,5c0.8,0.8,2.6,1.7,3.2,2.8c0.8,1.5,1.7,3.2,3,4.5c2.9,2.9,10.4,7.1,11.7,11
		c1.2,3.7,1.4,8,2.4,11.9c0.3,1.4,1.5,2.4,1.9,3.7c0.9,2.8,1.5,6,2.3,9c0,0.2,0.1,0.4,0.1,0.5c4.6,4.5,9.5,8.7,14.7,12.5
		C341,403.7,341,401.3,340.8,400.6z"/>
	<path class="st5" d="M289,306.7c-0.7-0.3-2.2-0.3-3.4-0.2c0.2,3.1,0.6,6.1,1,9.1c0.3-0.5,0.7-1.2,0.8-1.4
		C288.4,312.8,292.3,308,289,306.7z"/>
	<path class="st4" d="M444.6,179.3c2.4,0,2.4-3.5-0.2-3.7c-0.2,0.2-0.9,0.2-1.6,0.2c0,0,0,0,0,0l0,0c-0.6,0-1.3,0-1.3,0.1
		C440.3,177.7,443.1,179.3,444.6,179.3z"/>
	<path class="st4" d="M444.4,175.5c0.1-0.1,0.1-0.2-0.1-0.4l-1.5,0.6c0,0,0,0,0,0C443.5,175.5,444,175.5,444.4,175.5z"/>
	<path class="st4" d="M448.9,176.8c2.8-0.9,0.4-3.3-0.8-4.5c-0.3,0.1-0.6,0.3-0.7,0.6C446.8,174,447.4,177.3,448.9,176.8z"/>
	<path class="st4" d="M448.7,172.1l0.2,0C449,172.1,448.9,172.1,448.7,172.1z"/>
	<path class="st4" d="M447.6,171.8c0.1,0.1,0.3,0.3,0.5,0.5c0.2-0.1,0.5-0.2,0.6-0.2L447.6,171.8z"/>
	<path class="st4" d="M451.4,175.9c-0.3,0.7,0.8,2.8,1.4,1.8c0.4-0.6,0.7-6.7-1.2-4.8c-0.1,0.1,0.1,0.2,0.3,0.2
		c-0.3,0.3-0.9,0.6-0.8,1C451.4,175,451.8,175,451.4,175.9z"/>
	<path class="st4" d="M464.6,210.6c5.4-1.1-3.6-6.4-3.9-7.4c-0.9-2.8,1.6-4.2,1.6-6l0.1,0.4c0.2-1.2,0.7-3.1,0.8-3.3
		c0.6-1,1.9-1.5,2.5-2.6c1-2,1.2-5.4-2-4.7c-7,1.6-8.2,12.2-7.4,18C456.7,208.3,461.4,211.3,464.6,210.6z"/>
	<path class="st4" d="M462.5,198.3l-0.2-0.7C462.2,198.5,462.2,199,462.5,198.3z"/>
	<path class="st4" d="M398,249c-0.4-0.3-0.9-0.1-1.2-0.6l0.8,0.2c-0.1,0,0.5-1-0.4-0.6c-0.7,0.3-1,1.3-1.3,1.8
		c-0.3,0.4-0.8,0.6-1.1,1c-0.3,0.4-0.3,0.9-0.5,1.4c-0.5,1.2-2.1,2.5-1.1,3.8c1.6,2,3.9-1.1,4.9-2c0.5-0.4,1.2-0.9,1.3-1.6
		C399.6,250.8,399.4,250,398,249z"/>
	<path class="st4" d="M401.4,241.4c-0.2-0.3-0.8,0.3-1,0.4c-0.7,0.5-1.2,1.1-1.1,2.1c0.1,1,0.5,2.7,1.1,3.5c0.5,0.8,1.5,1.2,1.7,2.2
		c0.5,2.1-1.2,2.4-1.7,4.1c-0.2,0.8,0.4,1.6,0.2,2.4c-0.2,0.8-1.2,2.3,0.1,2.5c0.8,0.1,1.8-0.4,2.5-0.6c0.6-0.2,1.3,0,1.9-0.3
		c1.6-0.6,3.2-2.2,3.1-4c-0.1-1-0.6-2.6-1.1-3.4c-0.7-1-1.7-1.3-2.2-2.5c-0.4-0.9-0.8-1.6-1.3-2.4c-0.3-0.5,0.1-1.3-0.1-1.8
		c-0.3-0.9-1.5-2.1-2.5-2.1L401.4,241.4z"/>
	<path class="st4" d="M418.1,272.5c0,0-0.1,0.1-0.1,0.2l0.5-0.1C418.5,272.6,418.2,272.5,418.1,272.5z"/>
	<path class="st4" d="M417.9,272.7C417.9,272.7,417.9,272.7,417.9,272.7C418,272.7,418,272.7,417.9,272.7L417.9,272.7z"/>
	<path class="st4" d="M418,272.7c-0.3,0.4-0.7,1.2-0.5,1.4C418.8,275.4,419.7,272.8,418,272.7z"/>
	<path class="st4" d="M417.8,275.6l0.1,0.6c0,0-0.3,0.3-0.1,0.8c0.2,0.7-0.8,4.1,0.8,3.6c0.7-0.2,1.1-2.8,0.7-3.5
		C419,276.5,417.8,275.6,417.8,275.6z"/>
	<path class="st4" d="M441.4,286l0.8-0.7c0-0.1-3,0.9-2.2,2.2C441.3,289.6,443.8,286,441.4,286z"/>
	<path class="st4" d="M454.5,287.7c0.1-0.4,0.1-0.8-0.4-1.1c0,0-0.6-0.1-0.9-0.2c-1,0.3-2.5,1-1.9,2.2
		C451.9,289.9,454.3,288.5,454.5,287.7z"/>
	<path class="st4" d="M453.3,286.4C453,286.4,453.1,286.4,453.3,286.4c0.3,0,0.6-0.1,0.6-0.1L453.3,286.4z"/>
	<path class="st4" d="M544.6,336.9c-0.9-0.9-4.1-6.2-5.8-4.6c-0.9,0.9,1.4,3.6,1.8,4.4c1.1,2.6,3,9.1,6.4,9.4
		c0.7-1.9,1.4-3.7,2.1-5.6C548.4,338.6,545.9,338.2,544.6,336.9z"/>
	<path class="st4" d="M472.3,176.4c1.6,2.2,7.5-0.3,7.8,0c0.6,0.6,0.3,2.6,1.3,3.1c1.8,0.9,3.7-0.9,5.2-0.1c0.5,0.3,0.1,1.4,0.7,1.7
		c0.2,0.1,0.7-0.1,0.8,0c0.9,0.9,0.1,2.2,0.7,3.3c0.2,0.5,1.4,2.5,0.7,3c-1.6,1.1-3.2-0.8-4.4,1.7c-0.7,1.4-1,3.1-1.7,4.4
		c-0.4,0.9,0.6,1.9,0.4,2.3c-0.5,1-2.6,1.8-2.3,3.1c0.4,2.7,6.9,4.2,6.9,5.9c0,0,0,0.1,0,0.1c-0.3,0.3-1.9-1.1-2.1-1.3
		c-1.2-1.2-3.2-1.5-4.7-2.2c-1.4-0.7-2.4,1.3-2.7,2.2c-0.1,0.4,0.6,3,0.5,3c-2.6-1.3-2-6.5-4.4-7.7c-1.7-0.8-1.8,1.8-1.8,2.7
		c0,2.2,1.6,7.7,0,9.4c-0.4,0.4-1.5-1-2.2-0.7c-1.1,0.6-1.1,1.5-2,2.3c-0.3,0.3-6-0.3-6.1-0.1c-0.4,0.4-1.1,1.7-1.7,2
		c-0.7,0.3-1.5,0-2.1,0.7c-0.7,0.7-0.9,1.9-1.6,2.6c-1.3,1.3-3.2,2.3-4.7,3.8c-0.7,0.7-1.4,3.7-3.1,5.3c-0.9,0.9-4.6-2.9-4.8-3.6
		c-0.5-1.6,5.2,0.5,6.9-2.9c0-0.1,0.3-0.9,0.1-1.2c-1.2-1.8-3.3-1.7-4.4-2.9c-2.1-2.1-3.5-3.1-6.3-4c-1.6-0.5-6-2.7-7.5-2
		c-4.7,2.3-6.3,4.4-8.6,8.9c-1.4,2.9-3.6,5.2-5.1,8.1c-0.9,1.7-4.2,3.5-5.6,4.9c-1.1,1.1-0.7,3.9-1.7,4.9c-0.4,0.4-0.6,2.1-0.4,2.9
		c1.3,4,5.3-1.6,7.3,0.4c0.8,0.8,1.4,3.1,1.8,4.4c0.1,0.4-0.3,2.1,0.1,2.3c2.9,1.4,6.7-3,7.4-5.1c0.1-0.3,0-1.5,0.3-1.7
		c2.6-2.6,0.3-2.7-1.8-4.8c-0.5-0.5,0.3-2.6,0.5-2.9c2.2-2.2,2-7,4.7-8.3c1.4-0.7,1.9,1.1,1.4,2.1c-1.1,2.3-5.2,6.2-2.5,8.9
		c0.7,0.7,5.3,2.2,6.4,1.8c0.3-0.1,4.1-1,3.4-0.3c-2,2-6,1.9-8.2,4c-1.1,1.1,0.6,7-2.3,8.5c-1.2,0.6-2.7-0.8-4.3-0.8
		c-1.4,0-4.9,1-5.9,0.5c-0.7-0.3-1-2.5-1.8-2.1c-1.1,0.5-0.6,2-1.3,2.7c-0.8,0.8-2.1,1.2-3,1.7c-0.8,0.4-0.8,2-1.4,2.6
		c-1.2,1.2-2.6,2.5-3.8,3.6c-1.8,1.8-6,0.9-7.2,3.1c-1.6,3.2,4.8,4.2,2.2,9.4c-1.2,2.4-4-0.8-5.9,0.1c-4.2,2.1-4.3,2.6-4.3,7.8
		c0,0.7-0.6,2-0.3,2.7c2,4.1,7.2,4,10,1.2c0.6-0.6,2.5-0.1,3.1-0.8c1.6-1.6,2.4-4.2,3.4-6.1c0.3-0.6,0-2.8,0.4-3.3
		c0.3-0.3,0.2,0.6,0.1,0.7c-0.2,0.2,0.7,0.6,0.9,0.4c0.3-0.3,0-0.7-0.3-1c0.5,0,1.3-0.6,1.9-0.6c0.8,0,2.1,0.9,2.9,0.1
		c0.2-0.2,1.8-1.6,2-1.4c0.2,0.2-0.2,0.7-0.3,0.8c0.1-0.1,0.8-0.6,1-0.4c1.2,1.2,7.1,6.3,7.6,7.8c0.7,2-2.4,3-1.6,4.7
		c1.1,2.1,6.2-3.8,5.9-6c-0.5-3.3-4.6-3.7-6.2-5.9c-0.2-0.2-2.4-2.7-1.7-3c1.2-0.6,3.6,1,4.6,1.6c1.7,1,3.8,2.1,4.7,3.9
		c0.5,0.9-0.1,2.6,0.1,3.6c0.4,2,2.8,6.2,4.8,6.9c3.1,1-0.6-7.1,2.7-8.2c0.6-0.2,1.7,1.7,2.1,2.1c1.7,2,2,5.3,4.8,6.4
		c4.1,1.6,9.1-4.6,10.2,0.9c1.5,7.3-3.7,6.3-8.5,7.3c-0.8,0.2-1.6,0.6-2.5,0.4c-1.8-0.4-3.5-1.1-5.3-1.4c-1.5-0.3-5.2-2.4-6.2-0.8
		c-0.4,0.7-0.1,2.7-0.8,3.1c-1.2,0.8-4.2-1.6-5.6-1.8c-5.3-0.9-4.1-4.5-7.3-6.9c-1.8-1.4-4.6-1.8-6.6-2.6c-2.1-0.8-6.8,3.2-8.7,3.6
		c-1.4,0.4-5.5-0.7-5.9-0.4c-0.9,0.9-2.9,2.5-3.4,3.8c-0.5,1.3-0.9,4-2,5.1c-1.3,1.3-2.2,3.4-3.8,4.6c-1.9,1.4-4,2.4-5.5,4.3
		c-2.7,3.6-2.5,13.6-1,17.8c0.4,1.2,1.7,2.9,2.9,4.5c0.9,8,8.4,11.9,16.7,10.6c2.6-0.4,6.4-3.3,8.9-2.8c1.8,0.4,1.5,2.9,2.6,4
		c1.5,1.5,5.9-1.6,7.2,2.3c0.8,2.5-3.7,3.9-3.3,6c1.4,6.9,7.6,7.2,8.9,11.7c1.2,3.9-4.9,4.2-5.4,8.1c-0.5,4.4,4.3,7.1,4.9,11.2
		c0.5,3.4-0.4,8.4,1.2,11.6c0.9,1.7,8.2,4.3,10.2,3c3.4-2.3,6.3-4,9.3-7c1.3-1.3,1.6-4.7,3-5.6c0.9-0.6,1.9,0.5,2.8-0.7
		c0.8-1.1,0.7-7.1,2.8-10.5c1.9-3.1,5.7-0.1,7.2-5.4c0.7-2.4-1.7-4.4-1.9-6.7c-0.3-2.7,1.3-9.4,2.8-11.6c0.9-1.3,3.9-2.3,5.3-3.2
		c3.7-2.5,12.1-10.7,11-15.8c-0.5-2.5-9.3,2.2-13.3-0.9c-1.6-1.2-2.6-5.3-3.5-7c-1.1-2.2-3-3.7-4.2-5.6c-0.8-1.3-0.8-3.3-1.4-4.7
		c-0.9-1.9-2.9-4.6-1.4-6.8c1.6-2.4,4.6,5.3,4.9,5.8c3,4.9,4.1,10.6,7,14.9c0.9,1.3,3.5,4,5.3,2.3c0.5-0.5,2.1-0.7,2.8-1.1
		c3.1-1.6,15.7-12.1,14.9-15.3c-0.4-1.6-2.9-1-4-1.6c-1.3-0.6-1-2.1-2.1-2.6c-2-1-4,2-6.3,1.1c-1.5-0.6-4.4-5.9-3-7.4
		c0.4-0.4,3.2,2.8,3.7,3.2c1.3,1,7,2.5,8.9,3.3c1.5,0.6,7.3,2.2,8.8,1.9c1-0.2,1.8-1.3,2.8-1.1c3.3,0.8,3,5.7,5.3,6.8
		c1.1,0.6,3.2-1.9,3.7-1.4c0.9,0.9-0.7,5.3-0.3,6.7c0.7,3.2,3.3,12.2,6.5,13.9c1.5,0.8,4.6-3.1,5.1-4c0.6-1.3-0.1-3,0.2-4.4
		c0.6-2.9,6.1-9.3,8.6-10.5c1.1-0.5,2.6-3.3,4-2.6c3.4,1.7,4.2,4.9,5.1,8.6c0.2,0.7,4,1.5,4.9,2.5c1.7,1.7-1.3,7.1-0.9,9.5
		c0,0.1,3.9,5.5,4.2,5.8c1.3,1.1,3.4-0.5,3.3-0.5l-1.2,0.4c0-0.2,2.5-0.7,1.8-1.4c-1.6-1.6-6.8-3.9-5.4-8.1c0.4-1.1,0.6-2.6,0.8-4.1
		c1.4,1.8,2.9,2.7,4.8,4c0.7,0.5,1.4,1.5,2.3,1.9c2.3-9.9,3.5-20.1,3.5-30.7c0-57-35.2-105.8-85-125.9c-0.3,0.5-0.6,1-0.7,1.4
		C470.4,173.3,471.1,174.8,472.3,176.4z M455.7,264.5c0.2-0.4,0.5-0.6,0.5-0.7c0-0.1,1.7,0.5,1.7,0.5s0.1,1.4,0,1.6
		c-0.1,0.2-1.4,1.2-1.7,1.2l-0.6-0.3l-0.3-0.9C455.3,265.9,455.5,264.8,455.7,264.5z M462.9,273.1c-3.1,3.1-6.3,0.7-10.5,0.7
		c-1.4,0-3.4,2.3-4.7,1.6c-0.5-0.2-1.9-0.3-2.1-1.2c-0.4-1.5,0.5-7.6,1.9-8.2c2.1-1,3.1,2.1,3.9,2.3c0.5,0,0.6,0.1,1,0.3
		c0.4,0.2,0.9-0.2,1.2-0.2C454.1,268.3,465.5,270.4,462.9,273.1z M480.3,282c-0.1,0.9-0.8,1-1.5,1.2c-0.7,0.2-1.4-0.3-1.8-0.5
		c-0.4-0.2-1.7-1.2-1.7-1.2l-1.2-2.1l-0.4-2.3c0,0-1.5-2.5-1.5-2.9c0-0.4-0.2-3.3-0.2-3.3s-1.3-1-1.6-1.2c-0.3-0.2-0.7-1.6-0.7-1.9
		c0-0.3,0.5-2.1,0.5-2.1s2.3-1.6,2.4-1.7c0.1-0.2,2.2-0.7,2.3-0.6l1.1,0c0,0,0.4,1.3,0.3,1.9c-0.1,0.6-0.7,1.6-0.7,1.6
		s-0.6,0.7-0.4,1.1c0.2,0.4,0.3,2,0.4,2.4c0.1,0.3,1.8,2.5,1.8,2.5s1,1.8,1.4,3c0.4,1.3,0.5,2,0.6,2.5
		C479.6,278.7,480.4,281,480.3,282z M486.2,269.1c0,0-0.6-0.4-0.8-0.6c-0.1-0.1-0.9-2.2-0.9-2.2s0.2-0.6,0.3-0.9
		c0-0.2,0.3-0.5,0.3-0.5l1.4,0.3c0,0,1,1.3,1.1,1.6c0.1,0.3,0,1,0.1,1.7C487.7,269.2,486.2,269.1,486.2,269.1z M537.7,246.1
		c0,0,0.8,2.2,0.9,2.6c0.1,0.4,0.3,2.4,0.5,3.2c0.2,0.8-1.1,1.8-1.5,2c-0.4,0.1-0.9-0.4-1.1-0.6c-0.2-0.2-0.2-2-0.2-2.4
		c0-0.3,0.3-3.1,0.2-4.4c-0.1-1.3-0.3-1.8-0.4-2L537.7,246.1z M501.4,191.5l0.8,0.4l1.4,1l1.3,2c0,0,0.1,2.8,0,3.1
		c-0.1,0.3-1.1,1.2-1.6,1.2c-0.4,0-1.9-0.9-1.9-0.9V191.5z"/>
	<path class="st4" d="M520.2,328.3l-0.3,0c-0.3,0.2-0.4,1.8-0.6,2.3c-0.9,2.2,2.1,2,2.1-0.5C521.4,329.1,520.2,329.2,520.2,328.3z"
		/>
	<path class="st4" d="M474.9,358.8c-0.5-0.2-0.6,1.4-0.8,1.7c-0.4,0.9-1.2,1.4-1.9,1.9c-1.6,1.1-6.7,3.3-6.1,6
		c0.3,1.5,0.6,2.1-0.2,3.7c-0.6,1.1-2.2,3.6-1.9,4.9c1.1,4.2,5,1.2,6-1.2c1.2-2.9,1-6.1,3.3-8.4c3.1-3.1,1.6-5.2,1.6-8.2
		L474.9,358.8z"/>
	<path class="st6" d="M501.4,333.1l-0.5-8.4c-0.4-3.5-1-6.6-1.9-9.1c-8.9-26.1-27.7-26.8-39.6-31c-12-4.3-34.9-11.1-38-12.1
		c-0.1,0-0.3,0-0.4,0c-3.1,0.9-25.9,7.8-38,12.1c-11.8,4.2-30.7,4.8-39.6,31c-0.9,2.6-1.5,5.7-1.9,9.1l-0.5,8.4
		c-0.3,17.7,3.8,40,9.5,51c2.3,4.3,6.4,9.9,11.1,15.4l5.6,6.3c5.4,5.8,11,11.1,15.2,14.4c8.4,6.5,35.2,21.5,38.6,23.4
		c0.1,0,0.1,0.1,0.2,0.1c0.1,0,0.1-0.1,0.2-0.1c3.4-1.9,30.2-16.9,38.6-23.4c4.2-3.2,9.8-8.5,15.2-14.4l5.6-6.3
		c4.7-5.5,8.8-11.1,11.1-15.4C497.6,373.1,501.6,350.8,501.4,333.1z"/>
	<g>
		<path class="st7" d="M433.6,393.9c-1,0-1.9-0.7-2-1.8c-0.2-1.1,0.6-2.2,1.8-2.3l31.2-4.5c1.1-0.2,2.2,0.6,2.3,1.8
			c0.2,1.1-0.6,2.2-1.8,2.3l-31.2,4.5C433.8,393.9,433.7,393.9,433.6,393.9z"/>
	</g>
	<g>
		<path class="st7" d="M433.3,381.8c-0.6,0-1.1-0.4-1.2-1c-0.1-0.6,0.4-1.2,1-1.3l31.2-4.5c0.6-0.1,1.2,0.4,1.3,1
			c0.1,0.6-0.4,1.2-1,1.3l-31.2,4.5C433.5,381.8,433.4,381.8,433.3,381.8z"/>
	</g>
	<g>
		<path class="st7" d="M433.3,368.9c-0.3,0-0.5-0.2-0.6-0.5c0-0.3,0.2-0.6,0.5-0.7l31.2-4.5c0.3,0,0.6,0.2,0.7,0.5
			c0,0.3-0.2,0.6-0.5,0.7L433.3,368.9C433.4,368.9,433.4,368.9,433.3,368.9z"/>
	</g>
	<path class="st8" d="M556.3,302.7c-10.6,12.7-21.6,18.1-28.2,21.1c-10.6,4.8-27.2,7.9-27.2,7.9v4.1l32.5-9.2l16.9-11l6.4-8.9
		C556.6,306.8,556.9,302,556.3,302.7z"/>
	<path class="st8" d="M543.7,354.1l-1.4,9l-11.1,9.1l-22.9,7.5l-15,0.3l1.8-4.8C495.2,375.3,526.9,372,543.7,354.1z"/>
	
		<radialGradient id="SVGID_1_" cx="422.3968" cy="488.2469" r="118.5086" gradientTransform="matrix(1 0 0 0.2 0 390.5975)" gradientUnits="userSpaceOnUse">
		<stop  offset="0" style="stop-color:#422918;stop-opacity:0.97"/>
		<stop  offset="3.153045e-02" style="stop-color:#442A18;stop-opacity:0.8"/>
		<stop  offset="1" style="stop-color:#595118;stop-opacity:0"/>
	</radialGradient>
	<ellipse class="st9" cx="422.4" cy="488.2" rx="165.7" ry="25.5"/>
	<path class="st10" d="M348.9,302.2c-20.2,27-18.2,101.4,45.6,126.9C425.8,441.6,381.6,258.6,348.9,302.2z"/>
	<path class="st8" d="M285.3,303.1c10.6,12.7,21.9,18.5,28.6,21.5c10.6,4.8,27.2,7.9,27.2,7.9v4.1l-32.5-9.2l-16.9-11l-6.4-8.9
		C285.3,307.6,284.6,302.4,285.3,303.1z"/>
	<path class="st8" d="M298.8,355l1.4,9l11.1,9.1l22.9,7.5l15,0.3l-1.8-4.8C347.3,376.1,315.6,372.8,298.8,355z"/>
	<path class="st11" d="M421.4,272.5c-0.1,0-0.3,0-0.4,0c-3.1,0.9-25.9,7.8-38,12.1c-11.8,4.2-30.7,4.8-39.6,31
		c-0.9,2.6-1.5,5.7-1.9,9.1l-0.5,8.4c-0.3,17.7,3.8,40,9.5,51c2.3,4.3,6.4,9.9,11.1,15.4l5.6,6.3c5.4,5.8,11,11.1,15.2,14.4
		c8.4,6.5,35.2,21.5,38.6,23.4c0.1,0,0.1,0.1,0.2,0.1c0.1,0,0.2,0,0.2-0.1C421.4,417.6,421.4,302.8,421.4,272.5z"/>
	<g>
		<path class="st7" d="M410.8,393.9c-0.1,0-0.2,0-0.3,0l-31.2-4.5c-1.1-0.2-1.9-1.2-1.8-2.3c0.2-1.1,1.2-1.9,2.3-1.8l31.2,4.5
			c1.1,0.2,1.9,1.2,1.8,2.3C412.7,393.2,411.8,393.9,410.8,393.9z"/>
	</g>
	<g>
		<path class="st7" d="M410.5,381.8c-0.1,0-0.1,0-0.2,0l-31.2-4.5c-0.6-0.1-1.1-0.7-1-1.3c0.1-0.6,0.7-1.1,1.3-1l31.2,4.5
			c0.6,0.1,1.1,0.7,1,1.3C411.6,381.4,411.1,381.8,410.5,381.8z"/>
	</g>
	<g>
		<path class="st7" d="M410.5,368.9C410.5,368.9,410.4,368.9,410.5,368.9l-31.3-4.5c-0.3,0-0.5-0.3-0.5-0.7c0-0.3,0.3-0.5,0.7-0.5
			l31.2,4.5c0.3,0,0.5,0.3,0.5,0.7C411,368.7,410.8,368.9,410.5,368.9z"/>
	</g>
	<path class="st12" d="M455.3,314.2c0,0-26.1-13.6-34.1-13.6c-7.9,0-34.1,13.6-34.1,13.6s-7.6,2-3.6-5.3
		c3.8-6.9,29.7-17.5,37.6-17.5c8.7,0,33.8,10.6,37.6,17.5C462.9,316.2,455.3,314.2,455.3,314.2z"/>
	<g>
		<path class="st7" d="M421.2,438.4c-0.2,0-0.5-0.1-0.7-0.2l0,0c-0.6-0.4-2-1.1-3.8-2.1c-0.4-0.2-0.6-0.8-0.3-1.2
			c0.2-0.4,0.8-0.6,1.2-0.3c1.6,0.9,2.9,1.6,3.6,2l1.7-0.9c0.4-0.2,1-0.1,1.2,0.3c0.2,0.4,0.1,1-0.3,1.2l-1.9,1.1
			C421.7,438.3,421.5,438.4,421.2,438.4z M420.6,438.2L420.6,438.2L420.6,438.2z M429.4,433.7c-0.3,0-0.6-0.2-0.8-0.4
			c-0.2-0.4-0.1-1,0.3-1.2c1.9-1.1,3.9-2.3,6.1-3.5c0.4-0.2,1-0.1,1.2,0.3c0.2,0.4,0.1,1-0.3,1.2c-2.2,1.3-4.2,2.4-6.1,3.5
			C429.7,433.7,429.6,433.7,429.4,433.7z M411.1,432.6c-0.2,0-0.3,0-0.4-0.1c-1.9-1.1-4-2.3-6.1-3.5c-0.4-0.2-0.6-0.8-0.3-1.2
			c0.2-0.4,0.8-0.6,1.2-0.3c2.1,1.2,4.2,2.4,6.1,3.5c0.4,0.2,0.6,0.8,0.3,1.2C411.7,432.5,411.4,432.6,411.1,432.6z M441.6,426.6
			c-0.3,0-0.6-0.2-0.8-0.4c-0.3-0.4-0.1-1,0.3-1.2c2.2-1.3,4.2-2.5,6-3.6c0.4-0.3,1-0.1,1.2,0.3c0.3,0.4,0.1,1-0.3,1.2
			c-1.8,1.1-3.8,2.3-6,3.7C441.9,426.6,441.7,426.6,441.6,426.6z M399,425.5c-0.2,0-0.3,0-0.5-0.1c-2.2-1.3-4.2-2.6-6-3.7
			c-0.4-0.3-0.5-0.8-0.3-1.2c0.3-0.4,0.8-0.5,1.2-0.3c1.7,1.1,3.7,2.3,6,3.7c0.4,0.3,0.6,0.8,0.3,1.2
			C399.6,425.3,399.3,425.5,399,425.5z M453.5,419.2c-0.3,0-0.6-0.1-0.7-0.4c-0.3-0.4-0.2-1,0.2-1.2c1.5-1,2.8-1.9,3.7-2.6
			c0.6-0.4,1.2-1,1.9-1.5c0.4-0.3,0.9-0.3,1.2,0.1c0.3,0.4,0.3,0.9-0.1,1.2c-0.7,0.6-1.3,1.1-1.9,1.6c-1,0.7-2.2,1.6-3.8,2.7
			C453.8,419.2,453.7,419.2,453.5,419.2z M387.1,418c-0.2,0-0.4-0.1-0.5-0.2c-0.7-0.5-1.4-1-1.9-1.4c-1.1-0.8-2.3-1.9-3.6-3
			c-0.4-0.3-0.4-0.9-0.1-1.3c0.3-0.4,0.9-0.4,1.3-0.1c1.3,1.1,2.5,2.1,3.5,2.9c0.5,0.4,1.2,0.9,1.9,1.4c0.4,0.3,0.5,0.8,0.2,1.2
			C387.7,417.8,387.4,418,387.1,418z M464.3,410.3c-0.2,0-0.5-0.1-0.6-0.3c-0.3-0.4-0.3-0.9,0-1.3c1.6-1.5,3.3-3.2,4.9-4.9
			c0.3-0.4,0.9-0.4,1.3,0c0.4,0.3,0.4,0.9,0,1.3c-1.7,1.8-3.4,3.4-5,5C464.8,410.3,464.6,410.3,464.3,410.3z M376.5,408.8
			c-0.2,0-0.4-0.1-0.6-0.3c-1.6-1.6-3.3-3.3-4.9-5c-0.3-0.4-0.3-0.9,0-1.3c0.4-0.3,0.9-0.3,1.3,0c1.6,1.7,3.3,3.4,4.9,5
			c0.3,0.3,0.4,0.9,0,1.3C377,408.7,376.8,408.8,376.5,408.8z M474,400.2c-0.2,0-0.4-0.1-0.6-0.2c-0.4-0.3-0.4-0.9-0.1-1.3l2.5-2.8
			c0.7-0.8,1.4-1.7,2.1-2.5c0.3-0.4,0.9-0.4,1.2-0.1c0.4,0.3,0.4,0.9,0.1,1.2c-0.7,0.8-1.4,1.7-2.1,2.5l-2.5,2.8
			C474.5,400.1,474.3,400.2,474,400.2z M367,398.5c-0.2,0-0.5-0.1-0.7-0.3l-1-1.1c-1.2-1.5-2.4-2.9-3.5-4.3
			c-0.3-0.4-0.2-0.9,0.2-1.2c0.4-0.3,0.9-0.2,1.2,0.2c1.1,1.4,2.2,2.8,3.4,4.2l1,1.1c0.3,0.4,0.3,0.9-0.1,1.3
			C367.4,398.5,367.2,398.5,367,398.5z M482.9,389.3c-0.2,0-0.4-0.1-0.5-0.2c-0.4-0.3-0.5-0.8-0.2-1.2c1.5-2.2,2.8-4.1,3.7-5.8
			c0.2-0.4,0.8-0.6,1.2-0.4c0.4,0.2,0.6,0.8,0.4,1.2c-0.9,1.8-2.2,3.8-3.8,6C483.4,389.2,483.1,389.3,482.9,389.3z M358.3,387.5
			c-0.3,0-0.6-0.1-0.7-0.4c-1.1-1.6-2-3.1-2.7-4.5c-0.3-0.5-0.6-1.1-0.8-1.7c-0.2-0.4,0-1,0.4-1.2c0.4-0.2,1,0,1.2,0.4
			c0.3,0.6,0.5,1.1,0.8,1.6c0.7,1.3,1.5,2.7,2.6,4.3c0.3,0.4,0.2,1-0.2,1.2C358.7,387.5,358.5,387.5,358.3,387.5z M489.4,377
			c-0.1,0-0.2,0-0.3-0.1c-0.5-0.2-0.7-0.7-0.5-1.1c0.7-2,1.4-4.3,2-6.6c0.1-0.5,0.6-0.8,1.1-0.6c0.5,0.1,0.8,0.6,0.6,1.1
			c-0.6,2.4-1.3,4.7-2.1,6.8C490.1,376.7,489.8,377,489.4,377z M352.4,374.9c-0.4,0-0.7-0.2-0.8-0.6c-0.7-2.1-1.3-4.4-1.9-6.8
			c-0.1-0.5,0.2-1,0.7-1.1c0.5-0.1,1,0.2,1.1,0.7c0.6,2.4,1.2,4.6,1.8,6.7c0.1,0.5-0.1,1-0.6,1.1
			C352.5,374.9,352.5,374.9,352.4,374.9z M493,363.4c-0.1,0-0.1,0-0.2,0c-0.5-0.1-0.8-0.6-0.7-1c0.4-2.2,0.8-4.5,1.2-6.9
			c0.1-0.5,0.5-0.8,1-0.7c0.5,0.1,0.8,0.5,0.7,1c-0.3,2.4-0.7,4.7-1.2,7C493.8,363.1,493.4,363.4,493,363.4z M349.1,361.2
			c-0.4,0-0.8-0.3-0.9-0.7c-0.4-2.3-0.8-4.6-1.1-7c-0.1-0.5,0.3-0.9,0.8-1c0.5-0.1,0.9,0.3,1,0.8c0.3,2.3,0.7,4.6,1.1,6.9
			c0.1,0.5-0.2,0.9-0.7,1C349.2,361.2,349.1,361.2,349.1,361.2z M495,349.5C495,349.5,495,349.5,495,349.5c-0.6-0.1-0.9-0.5-0.9-1
			c0.2-2.4,0.4-4.7,0.5-7c0-0.5,0.4-0.9,0.9-0.8c0.5,0,0.9,0.4,0.8,0.9c-0.1,2.3-0.3,4.7-0.5,7C495.8,349.2,495.5,349.5,495,349.5z
			 M347.2,347.3c-0.5,0-0.8-0.4-0.9-0.8c-0.2-2.4-0.3-4.8-0.4-7.1c0-0.5,0.4-0.9,0.9-0.9c0.5,0,0.9,0.4,0.9,0.9
			c0.1,2.2,0.2,4.6,0.4,7C348.2,346.9,347.8,347.3,347.2,347.3C347.3,347.3,347.3,347.3,347.2,347.3z M495.6,335.8
			c-0.5,0-0.9-0.4-0.9-0.8l-0.4-7c0-0.5,0.3-0.9,0.8-0.9c0.5,0,0.9,0.3,0.9,0.8l0.4,7C496.5,335.3,496.2,335.7,495.6,335.8
			C495.6,335.8,495.6,335.8,495.6,335.8z M347,333.3C347,333.3,347,333.3,347,333.3c-0.5,0-0.9-0.5-0.9-0.9l0.3-5.3
			c0.1-0.6,0.1-1.2,0.2-1.7c0.1-0.5,0.5-0.8,1-0.8c0.5,0.1,0.8,0.5,0.8,1c-0.1,0.5-0.1,1.1-0.2,1.6l-0.3,5.3
			C347.8,333,347.5,333.3,347,333.3z M494.1,321.8c-0.4,0-0.8-0.3-0.9-0.7c-0.2-0.8-0.4-1.6-0.7-2.3c-0.5-1.5-1-2.9-1.6-4.2
			c-0.2-0.4,0-1,0.5-1.2c0.4-0.2,1,0,1.2,0.5c0.6,1.4,1.2,2.8,1.7,4.3c0.3,0.7,0.5,1.6,0.7,2.4c0.1,0.5-0.2,1-0.6,1.1
			C494.2,321.8,494.1,321.8,494.1,321.8z M349.1,319.5c-0.1,0-0.2,0-0.3,0c-0.5-0.2-0.7-0.7-0.6-1.1c0.8-2.3,1.7-4.6,2.7-6.6
			c0.2-0.4,0.8-0.6,1.2-0.4c0.4,0.2,0.6,0.8,0.4,1.2c-1,2-1.9,4.1-2.6,6.4C349.8,319.3,349.4,319.5,349.1,319.5z M488.5,309.1
			c-0.3,0-0.6-0.1-0.7-0.4c-1.3-2-2.7-3.8-4.2-5.3c-0.3-0.4-0.3-0.9,0-1.3c0.4-0.3,0.9-0.3,1.3,0c1.6,1.7,3.1,3.6,4.4,5.6
			c0.3,0.4,0.1,1-0.3,1.2C488.8,309,488.6,309.1,488.5,309.1z M355.4,307.1c-0.2,0-0.4-0.1-0.5-0.2c-0.4-0.3-0.5-0.8-0.2-1.2
			c1.4-2,3.1-3.7,4.8-5.3c0.4-0.3,0.9-0.3,1.3,0.1c0.3,0.4,0.3,0.9-0.1,1.3c-1.7,1.5-3.2,3.2-4.6,5
			C355.9,306.9,355.7,307.1,355.4,307.1z M478.7,299.1c-0.2,0-0.3,0-0.5-0.1c-1.8-1.2-3.8-2.3-6-3.2c-0.5-0.2-0.7-0.7-0.5-1.2
			s0.7-0.7,1.2-0.5c2.3,1,4.4,2.1,6.3,3.4c0.4,0.3,0.5,0.8,0.2,1.2C479.3,299,479,299.1,478.7,299.1z M365.8,297.8
			c-0.3,0-0.6-0.2-0.8-0.5c-0.2-0.4-0.1-1,0.3-1.2c2-1.1,4.1-2.1,6.5-3c0.5-0.2,1,0.1,1.1,0.5c0.2,0.5-0.1,1-0.5,1.1
			c-2.3,0.9-4.4,1.8-6.2,2.8C366.1,297.8,365.9,297.8,365.8,297.8z M466,293.5c-0.1,0-0.2,0-0.3,0c-1.2-0.4-2.3-0.7-3.5-1
			c-1.1-0.3-2.2-0.6-3.3-0.9c-0.5-0.1-0.7-0.6-0.6-1.1c0.1-0.5,0.6-0.7,1.1-0.6c1,0.3,2.1,0.6,3.2,0.9c1.1,0.3,2.3,0.6,3.5,1
			c0.5,0.1,0.7,0.6,0.6,1.1C466.7,293.3,466.3,293.5,466,293.5z M378.9,292.8c-0.4,0-0.7-0.3-0.9-0.6c-0.1-0.5,0.1-1,0.6-1.1
			l1.1-0.3c2-0.5,3.8-1.1,5.5-1.7c0.5-0.2,1,0.1,1.1,0.5c0.2,0.5-0.1,1-0.5,1.1c-1.8,0.6-3.6,1.1-5.6,1.7l-1.1,0.3
			C379,292.8,378.9,292.8,378.9,292.8z M452.5,289.4c-0.1,0-0.2,0-0.3,0c-2-0.7-4.2-1.4-6.7-2.2c-0.5-0.2-0.7-0.7-0.6-1.1
			c0.2-0.5,0.7-0.7,1.1-0.6c2.5,0.8,4.7,1.5,6.7,2.2c0.5,0.2,0.7,0.7,0.6,1.1C453.3,289.1,452.9,289.4,452.5,289.4z M392.2,288.6
			c-0.4,0-0.7-0.2-0.8-0.6c-0.2-0.5,0.1-1,0.6-1.1c2.1-0.7,4.4-1.4,6.7-2.2c0.5-0.1,1,0.1,1.1,0.6c0.2,0.5-0.1,1-0.6,1.1
			c-2.3,0.7-4.5,1.5-6.7,2.2C392.4,288.6,392.3,288.6,392.2,288.6z M439.2,285c-0.1,0-0.2,0-0.3,0c-2.3-0.7-4.6-1.4-6.7-2.1
			c-0.5-0.1-0.7-0.6-0.6-1.1c0.1-0.5,0.6-0.7,1.1-0.6c2.1,0.7,4.4,1.4,6.7,2.1c0.5,0.1,0.7,0.6,0.6,1.1
			C439.9,284.8,439.6,285,439.2,285z M405.6,284.3c-0.4,0-0.7-0.2-0.8-0.6c-0.1-0.5,0.1-1,0.6-1.1c2.4-0.7,4.7-1.5,6.7-2.1
			c0.5-0.1,1,0.1,1.1,0.6c0.1,0.5-0.1,1-0.6,1.1c-2,0.6-4.3,1.3-6.7,2.1C405.8,284.3,405.7,284.3,405.6,284.3z M425.8,280.9
			c-0.1,0-0.2,0-0.3,0c-2.1-0.6-3.6-1.1-4.3-1.3c-0.4,0.1-1.1,0.3-1.9,0.6c-0.5,0.1-1-0.1-1.1-0.6c-0.1-0.5,0.1-1,0.6-1.1
			c1-0.3,1.7-0.5,2.1-0.6c0.1,0,0.2,0,0.4,0c0.2,0,0.3,0,0.4,0c0.7,0.2,2.3,0.7,4.4,1.3c0.5,0.1,0.7,0.6,0.6,1.1
			C426.5,280.6,426.2,280.9,425.8,280.9z"/>
	</g>
	<path class="st13" d="M415.8,299.9c-1.1,0-2.1-0.7-2.5-1.8c-0.5-1.4,0.2-2.9,1.6-3.4c0.3-0.1,3.5-1.2,6.3-1.2
		c2.4,0,5.4,1.1,5.7,1.2c1.4,0.5,2.1,2,1.6,3.4c-0.5,1.4-2,2.1-3.4,1.6c-0.9-0.3-2.8-0.9-3.8-0.9c-1.7,0-3.9,0.6-4.6,0.9
		C416.3,299.9,416,299.9,415.8,299.9z"/>
	<g>
		<path class="st7" d="M349.1,346.7c-0.5-0.1-12.5-1.7-27.6-7.4c-14-5.2-25.6-12.2-34.3-20.4c0,0,0,0,0,0c-0.3-0.2-4.8-3.1-4-10.2
			c0.2-1.6,2.2-5.6,2.2-5.6c19.1,28.3,62.6,34.4,63.1,34.4L349.1,346.7z"/>
	</g>
	<path class="st7" d="M361.5,388.6c-0.2,0-1.8,0.1-4.5,0.1c-4.5,0-12.2-0.4-21-2.3c-8.5-1.9-16.2-4.8-23.2-8.6c0,0-7.6-2-13.5-11.4
		c-3.3-5.3-0.4-11.4-0.4-11.4c22.8,27.7,57.6,24.5,58,24.5L361.5,388.6z"/>
	<g>
		<path class="st11" d="M492.8,345.9c0.5-0.1,12.5-1.7,27.6-7.4c14-5.2,25.6-12.2,34.3-20.4c0,0,0,0,0,0c0.3-0.2,4.8-3.1,4-10.2
			c-0.2-1.6-2.2-5.6-2.2-5.6c-19.1,28.3-62.6,34.4-63.1,34.4L492.8,345.9z"/>
	</g>
	<path class="st11" d="M481,387.7c0.2,0,1.8,0.1,4.5,0.1c4.5,0,12.2-0.4,21-2.3c8.5-1.9,16.2-4.8,23.2-8.6c0,0,7.6-2,13.5-11.4
		c3.3-5.3,0.4-11.4,0.4-11.4c-22.8,27.7-57.6,24.5-58,24.5L481,387.7z"/>
</g>
</svg>
