<?xml version="1.0" encoding="utf-8"?>
<!-- Generator: Adobe Illustrator 22.0.1, SVG Export Plug-In . SVG Version: 6.00 Build 0)  -->
<svg version="1.1" id="Capa_1" xmlns="http://www.w3.org/2000/svg" xmlns:xlink="http://www.w3.org/1999/xlink" x="0px" y="0px"
	 viewBox="0 0 841.9 595.3" enable-background="new 0 0 841.9 595.3" xml:space="preserve">
<rect fill="#EDEDED" width="841.9" height="595.3"/>
<g>
	<path fill="#9E9B90" d="M366.2,430c0.6-0.3,1.2-0.2,1.8-0.2c11.9,0,23.9-0.4,35.8-0.3c8.2,0.1,16.3,0.1,24.5,0.3
		c10.5,0.2,21,0.5,31.5,0.8c8.7,0.3,17.3,0.6,26,1.1c10.6,0.6,21.3,1.2,31.9,1.9c11.4,0.8,22.7,1.9,33.9,3.6
		c5.3,0.8,10.6,1.2,15.7,3c1.1,0.4,2.2,0.7,3.1,1.5c1.6,1.3,1.6,3-0.1,4.3c-1.3,1-2.9,1.4-4.5,1.8c-5.4,1.3-11,1.9-16.5,2.5
		c-12.8,1.3-25.5,2-38.4,2.3c-5.3,0.1-10.5,0.3-15.8,0.4c-15,0.3-30,0.4-45,0.2c-11-0.1-22-0.3-33.1-0.6c-8.3-0.2-16.6-0.5-24.9-0.8
		c-7.9-0.3-15.7-0.7-23.6-1.1c-0.4,0-0.7-0.1-1.1-0.2c-0.1-1.1,0.8-1.6,1.4-2.2c2.8-2.9,4.3-6.4,4.2-10.5c-0.1-2.1-0.6-4.2-1.6-6.1
		c-0.5-1-1.2-1.4-2.3-1.4C368.3,430.5,367.2,430.9,366.2,430z"/>
	<path fill="#E17A5F" d="M303.1,312.4c-0.9-0.3-1.8,0.1-2.6,0.4c-4.1,1.4-8.3,1.9-12.6,1.9c-6.9,0-11.8-5.2-11.2-12.1
		c0.4-4.1,1.5-8,2.8-11.8c1.3-4,4.3-6.8,7-9.8c4.7-5.2,10.3-9.5,16.1-13.4c0.8,0,1,0.6,1.2,1.1c1.5,3,3.5,5.7,5.5,8.5
		c0.4,0.5,1,1,0.7,1.8c-3.9,2.4-7.4,5.4-10.2,9c-1,1.2-1.7,2.7-1.8,4.3c-0.1,1.7,0.6,2.5,2.3,2.6c2.7,0.1,5.2-0.7,7.5-1.9
		c0.7,1.2,0.7,2.6,1.4,3.9c1.4,2.5,2.9,4.8,4.4,7.2c0.3,0.5,0.7,1,0.8,1.6c0.2,1.4,0.8,2.1,2.2,2.2c1.4,0.1,2.5-0.4,3.6-1.2
		c1.3-1.1,2.6-2.2,3.7-3.5c0.3-0.4,0.8-1.2,1.4-0.2c-0.4,2.4-1,4.7-1.7,7c-0.4,0.5-0.9,0.3-1.4,0.1c-0.9-0.3-1.5,0-2.1,0.7
		c-1.7,1.8-2.5,4-2.9,6.5c-0.2,1.2,0.6,2.1,1.4,2.8c2.3,1.5,4.7,1.2,7.2-1c0.4-0.4,0.8-1.2,1.6-0.6c0.4,0.6,0.3,1.3,0.3,2
		c-0.4,6.3-0.4,12.6,0,18.9c0.1,2.5,0.2,5.1,0.3,7.6c0.2,6.3,0.6,12.7,0.7,19c0.1,5.1,0.8,10.3,1.4,15.4c0.2,1.6,0.3,3.2,0.5,4.8
		c0.2,1.9,0.1,2-1.7,2.3c-0.2,0-0.4,0.1-0.5,0.1c-6.6,1.8-13.4,2.9-20.2,3.8c-1.5,0.2-3,0.5-4.5-0.2c-1.3-0.3-2-1.2-2.2-2.5
		c-0.9-4.1-0.7-8.3-0.4-12.4c0.3-5.5,1-11,1.5-16.5c0.8-9.2,1.5-18.4,1.4-27.6c0-2.8-0.4-5.5-0.2-8.3c1.4-4.5,3.7-8.6,6.3-12.5
		c0.4-0.6,0.8-1.1,1.2-1.7c0.3-0.4,0.5-1,0.1-1.4c-0.4-0.4-0.9-0.2-1.3,0c-1.8,0.9-3.5,1.9-5.3,2.7
		C304.3,312.2,303.8,312.7,303.1,312.4z"/>
	<path fill="#81B29A" d="M552.2,184.2c-0.1,0.8-0.5,1.6-0.8,2.4c-1.6,0.8-3.1,1.7-4.7,2.6c-3,1.8-3.8,5.3-0.3,7.5
		c0.1,0.8-0.2,1.3-0.8,1.8c-2.7,0.3-4,1.5-4.6,4c-0.7,3,0,5.1,2.6,6.9c0.4,0.6,0.2,1-0.3,1.4c-2.3,0.5-3.2,1.5-3.5,4.1
		c-0.3,2.3,0.5,3.8,2.4,4.8c0.2,0.1,0.4,0.2,0.6,0.3c0.4,0.6,0.2,1.1-0.3,1.6c-1.3,0.6-2.1,1.8-2.6,3c-0.7,1.5-0.9,3.2-0.8,4.8
		c0,1.1,0.3,2.2,1.7,2.5c0.5,0.7,0.4,1.2-0.4,1.3l0,0c0,0.1,0,0.2,0,0.3c-3.7,0.9-6.3,3-7.3,6.7c-0.2,0.8-0.4,1.6,0.2,2.4
		c0.3,0.8-0.2,1.2-0.9,1.4c-4.1-1-7.3,0.4-9.8,3.6c-1,1.3-1.2,2.8-1,4.4c0.2,0.9-0.2,1.5-1.1,2c-8.5,1.2-16.9,0-25.3-1.5
		c-5.9-1-12-1.6-18-2.3c-14.4-1.7-28.6-4.4-42.3-9.3c-9-3.2-17.8-6.6-26.3-10.9c-7-3.5-12.9-8.5-18.4-14.1c-0.6-0.4-1.1-0.9-1.1-1.7
		c0,0,0,0,0.1-0.1c0-0.5-0.2-1.1,0.2-1.5c-0.6-0.4-0.6-0.9-0.2-1.5c3.3-2.3,6.8-4.4,10.3-6.4c10.3-5.8,21.1-10,32.3-13.6
		c10.8-3.4,21.8-5.7,33.1-6.9c9.5-1.1,19-2.2,28.5-2.7c9.4-0.5,18.8-0.4,28.2-0.2c9.3,0.2,18.7,0.8,28,2.1
		C550.6,183.5,551.5,183.7,552.2,184.2z"/>
	<path fill="#E17A5F" d="M364.3,391.8c-2.9,0-5.7-0.7-8.5-1c-4.3-0.4-8.5-0.6-12.8-0.7c-1.6,0.6-3.1,0.1-4.7,0.2
		c-1.3,0.1-2.5-0.2-3.8-0.3c-0.6,0-1.3-0.2-1.6-0.8c-0.4-1.3-0.3-2.6-0.1-3.9c0.3-0.7,0.7-0.4,1.1-0.2c0.6,0.4,1.2,0.6,1.7,0
		c0.5-0.6,0.5-1.3,0.2-1.9c-0.4-0.7-1-0.7-1.7-0.4c-0.5,0.2-0.9,0.5-1.3-0.2c-0.4-0.9-0.4-1.8-0.4-2.7c-0.1-4.7-0.8-9.4-1-14
		c-0.3-6.4-1.4-12.7-1.7-19.1c-0.1-1.3,0.2-2.6,0.2-3.9c0.1-3.6-0.4-7.2-0.3-10.8c0.2-4.1,0.2-8.1-0.4-12.1
		c-0.2-1.5,0.9-2.4,1.5-3.4c0.3-0.5,0.7-0.5,1.2-0.2c0.8,0.4,1.5,0.2,1.8-0.6c0.3-0.8-0.1-1.4-0.9-1.7c-0.3-0.1-0.7-0.2-0.9-0.5
		c-0.3-0.9-0.5-1.8-0.8-2.6c-0.3-0.8-0.2-1.6,0.5-2.3c0.7-0.4,1.1,0.2,1.5,0.6c4.7,5.4,10,10.2,15.5,14.7c0.5,0.4,1.1,0.7,1.1,1.5
		c-0.9,8.7,2.8,16.3,6.4,23.8c1.1,2.2,2.2,4.4,2.1,6.9c-0.1,5.8,1.3,11.2,2.7,16.7c0.4,1.6,0.6,3.3,0.8,4.9
		c0.4,3.9,1.9,7.5,2.8,11.3C364.6,390,365.1,390.9,364.3,391.8z"/>
	<path fill="#E17A5F" d="M312.5,261c1.5-1.1,1.4-1,0.4-2.5c-2.8-4.1-4.8-8.6-5.8-13.5c-1.4-6.6-0.9-13,0.5-19.6
		c1.8-8.2,6.7-13.6,13.9-17.2c5.9-3,12.3-4.8,19-4.8c4.8,0,9.5,1,14.1,2.5c7.1,2.3,13.7,5.9,20.4,9.2c-0.1,0.6-0.5,1.1-0.9,1.5
		c-5.8,6.4-12.1,12.4-18.9,17.8c-3.7,3-7.2,6.3-10.8,9.5c-0.7,0.6-1.5,1.2-2.3,1.8c-0.4,0.3-0.7,0.8-1.3,0.5
		c-0.3-0.6,0.2-1.1,0.4-1.5c0.7-1.3,1.6-2.5,2.4-3.7c0.7-1,1.3-2.1,1.7-3.3c1-2.9,1.7-6,1.7-9.1c0-5.6-1.3-10.7-6.5-13.9
		c-2.2-1.2-4.5-1.9-6.9-2.5c-4.3-0.8-8,0.3-11.3,3c-1.1,0.9-2.3,1.9-3.2,3c-2.6,3.1-3.5,6.8-3.7,10.6c-0.4,7.6,1.7,14.5,6.4,20.5
		c0.5,0.6,0.9,1.3,1.8,1.5c0.1,0,0.3,0.1,0.4,0.2c0.9,0.7,1.4,1.8,2.2,2.6c1.3,1.4,2.8,2.2,4.7,2.4c0.5,0.1,1,0.1,1.4,0.5
		c1.4,0.7,2.3,1.9,3.5,2.8c2,2.4,3.5,2.8,6.5,1.7c1.1-0.4,2-1.4,3.3-1c0.2,1.3-0.7,2.3-1,3.4c-2.7,1.3-5.5,2.2-8.6,1.9
		c-0.8-0.1-7.1-1.8-8.1-3.1c-0.5-0.6-0.7-1.4-1-2.1c-0.3-0.7-0.4-1.4-1.1-2c-0.4,0.9-0.1,1.6,0.2,2.3c0.5,1.2,1,2.3,1.9,3.2
		c0.4,0.4,0.8,0.8,0.8,1.4c-0.5,5.4-0.5,10.9-0.7,16.3c-0.5,1.2-1,0.3-1.4-0.1c-1.3-1.7-2.8-3.4-3.9-5.3c-2.8-4.6-6.1-8.9-9.3-13.3
		C312.6,262.2,311.8,261.8,312.5,261z"/>
	<path fill="#CD7057" d="M364.3,391.8c0.1-2-0.7-3.8-1.2-5.6c-1.2-3.6-1.9-7.2-2.3-10.9c-0.4-3-1.4-5.8-2-8.7
		c-0.6-2.8-1.1-5.7-1-8.6c0-3.1-0.7-5.9-2.2-8.7c-3-5.4-4.9-11.3-6.3-17.3c-0.5-2.3-0.5-4.6,0.2-6.9c0.5-0.2,0.8,0.2,1.1,0.4
		c4,2.9,7.7,6.1,12,8.6c0.6,0.3,1,0.8,1.1,1.5c0.9,1.4,1.7,2.7,2.6,4.1c0.5,0.8,0.8,1.7,0.9,2.7c0.1,2.5,1,4.4,3.2,5.8
		c1.8,1.1,2.9,2.9,3.6,4.9c0.6,1.7,1.1,3.5,1.4,5.3c0.4,2.8,1.6,5.3,3.8,7.2c0.8,0.7,1.5,1.5,2.1,2.4c1.6,2.4,2.7,5.1,3.5,7.8
		c0.1,0.5,0.2,1,0.3,1.5c0.6,2.7,1.9,4.8,4.5,5.9c0.8,0.4,1.6,0.9,2.5,1.2c2.9,1,4.5,3.7,6.8,5.5c1.2,1,0.1,2.6-1.9,2.8
		c-2.1,0.2-4.1,0.5-6.2,0.3c-6.2-0.8-12.4-0.4-18.6-0.6C369.4,392.2,366.8,392.4,364.3,391.8z"/>
	<path fill="#CD7057" d="M356,267.3c1.4,1.6,3,3,4,4.9c1.2,0.9,1.7,2.3,2.4,3.6c1,2,2.2,3.8,3.5,5.6c3.4,6.7,5.7,13.8,6.2,21.4
		c0.1,1.9,0.2,3.8-0.3,5.6c-1,3.5-3,6.4-5.8,8.8c-2.1,1.8-4.6,1.6-7.1,1c-0.3-0.1-0.5-0.1-0.8-0.2c-2.5-0.5-4.5-2-6.8-3.1
		c-0.3-0.2-0.6-0.4-0.8-0.8c-0.3-1.5-0.1-3-0.4-4.5c-1.3-6.1-2.5-12.3-5.4-18c-0.4-0.8-0.6-1.6,0.1-2.3c0.7-0.7,1.4-0.4,2.2,0
		c2.3,1.2,4.7,2.3,6.9,3.9c0.5,0.3,1,0.7,1.5,1c0.5,0.2,0.9,0.4,1.4,0c0.4-0.4,0.3-0.8,0.2-1.3c-1.2-5.7-3-11.1-5.5-16.3
		c-0.5-1-0.9-2.5-1.9-2.6c-1-0.1-1.4,1.4-2,2.2c-1.3,1.8-2.2,4-3.5,5.8c-0.5,0.7-0.4,1.3,0.1,1.9c0.6,0.8,0.9,1.7,1.1,2.7
		c0.3,1.6-0.3,3-1.6,3.9c-1,0.7-1.8,0.5-2.5-0.5c0.6-1.4,0-2.4-1-3.3c-0.6-0.6-1.4-1-1.7-1.9c0-0.8,0.5-1.3,0.9-2
		c2.7-4.9,5.9-9.6,9.1-14.3c0.4-0.6,0.9-1.3,1.8-1.4c1.6,0.2,3.1,0.5,4.7,0C355.2,266.9,355.7,266.9,356,267.3z"/>
	<path fill="#8B897F" d="M366.2,430c1.2,0,2.5,0.1,3.7,0c0.9,0,1.4,0.3,1.8,1c3.3,5.3,2.5,12.8-1.9,17.2c-0.7,0.8-1.6,1.4-2.2,2.3
		c-4.2,0-8.5-0.4-12.7-0.7c-7.1-0.5-14.2-1.1-21.4-1.8c-11-1.1-22-2.1-32.8-4.7c-1.6-0.4-3.2-0.9-4.7-1.6c-0.8-0.4-1.6-0.8-1.9-1.7
		c0.1-0.1,0.3-0.1,0.4-0.1c2.6,1.3,5.1,2.5,8.1,2.6c1.4,0.1,2.9,0,4.3-0.2c3.8-0.5,7.5-1.3,10.9-3.3c1.4-0.8,2.1-1.8,2.3-3.3
		c0.2-1.2,0-2.5,0.6-3.7c0.9-0.7,1.8-0.6,2.8-0.3c0.7,0.7,0.5,1.6,0.5,2.4c0,1.5,0.3,2.9,1.1,4.2c0.6,1.2,1.7,1.8,2.8,2.4
		c5.5,3,10.9,2.2,16.3-0.3c0.4-0.2,0.8-0.4,1.2-0.7c3.1-1.7,4.7-4.3,4.6-7.9c0-0.7-0.2-1.6,0.9-1.6C356.1,430.3,361.1,430,366.2,430
		z"/>
	<path fill="#CD7057" d="M340.7,246.2c1.8-1,3.3-2.4,4.9-3.8c5.1-4.6,10.3-9,15.5-13.4c4.9-4.1,9.2-8.7,13.4-13.5
		c0.1-0.1,0.3-0.2,0.4-0.3c2.1,0.8,4.1,1.7,6.1,2.8c0.1,0.7-0.5,1.1-0.9,1.5c-3.3,3.6-6.6,7.2-9.7,11c-5.5,6.8-10.4,13.9-15.4,21.1
		c-1.2,1.7-2.5,3.4-3.7,5.2c-0.2,0.4-0.6,0.7-1,0.9c-3.2-0.1-6,1-8.8,2.3c-1.6,0.8-3.4,0.9-4.9-0.5c-0.6-0.6-1-0.3-1.4,0.1
		c-0.1,0-0.3,0-0.4-0.1c-0.8-1.1-2.1-1.8-3-2.8c0-0.9,0.7-1.4,1.2-1.9c2.3-2.6,4.6-5.1,6.6-7.9C339.9,246.5,340.2,246.2,340.7,246.2
		z"/>
	<path fill="#81B29A" d="M303,421c-0.4-1.6,0.2-3.2,0.2-4.8c0.1-7.3,0.4-14.5,0.3-21.8c0-0.7-0.1-1.4,0.2-2c0.6,0.5,0.5,1.2,0.5,1.8
		c0.1,1.3,0.2,1.4,1.5,1.1c3.3-0.9,6.6-1.9,10.1-2.3c0.9-0.1,1.8-0.1,2.8-0.2c0.9,0,1.3,0.4,1.4,1.3c0,0.3,0,0.6,0,1
		c0.1,8.7,0.5,17.4,1.3,26c0.1,0.6,0.1,1.1-0.3,1.6c-0.4,0.3-0.8,0.4-1.3,0.4c-4.6,0.2-9.2-0.1-13.8-0.8
		C304.8,422.2,303.6,422.1,303,421z"/>
	<path fill="#DDBA82" d="M365.4,281.4c-2.3-2.7-3.7-6.1-5.5-9.2c7,2.3,13.8,4.8,20.4,8.1c0.3,0.2,0.7,0.4,1,0.3
		c3.3-1,6.7-0.5,10-0.5c4-0.1,7.9-0.1,11.9,0.1c4,0.2,7.9,0.1,11.9,0.2c0.4,0,0.8,0,1.2,0c3.8,0,4,0.2,3.2,3.9
		c-7.8-0.1-15.7-0.5-23.5-0.4c-4,0.1-7.9,0.1-11.9,0.6c4-0.4,8.1-0.5,12.1-0.6c7-0.1,14.1,0.3,21.2,0.2c0.8,0,1.4,0.3,2.2,0.4
		c1.8,1.2,3.6,2.5,5.5,3.7c-0.3,0.9-1.1,0.7-1.7,0.7c-2.5,0-5.1-0.1-7.6-0.2c-6.6-0.2-13.2-0.2-19.8,0c-2.8,0.1-5.5,0.3-8.3,0.5
		c-2.1,0.2-2.1,0.2-2.6,2.2c-0.1,0.2-0.2,0.4-0.3,0.6c-0.6,0.2-0.6-0.3-0.7-0.6c-0.2-0.5-0.1-1.1-0.2-1.6c-2-1.3-4.3-2.1-6.5-2.9
		c-0.1,0-0.3-0.1-0.4-0.1c-3.6-1.2-6.8-3.3-10.4-4.5C366.1,282,365.8,281.6,365.4,281.4z"/>
	<path fill="#E4C087" d="M426.7,317.6c4,0.2,8-0.4,12-0.5c2.2,0,4.4-0.1,6.6-0.1c1.1,0,1.7,0.7,1.8,1.7c0.1,0.9,0,1.8-0.4,2.5
		c-0.9,1.5-0.8,3-0.4,4.7c0.6,2.3-0.1,3.2-2.5,3.3c-3.4,0.1-6.8-0.1-10.2,0.3c-2.1,0.2-4.1-0.7-6.2-0.6c-0.1,0.1-0.3,0.2-0.4,0.3
		c-5,0.4-10.1,1.2-15.1,0.5c-1.8-0.2-2.1-0.5-2.1-2.3c0-3.4,0.3-6.8,0.4-10.2c0-0.3,0.1-0.5,0.3-0.8c4.5,1.2,9.1,0.9,13.7,0.6
		C425,317.1,425.9,317,426.7,317.6z"/>
	<path fill="#C6C6C6" d="M614.4,297.6c-2.7,0-5.3,0.1-8,0c-0.8,0-1.7-0.1-2.5-0.1c-29.3,0-58.7,0-88-0.1c-6.8,0-13.6-0.2-20.4-0.6
		c-5.9-0.3-11.7-0.9-17.6-1.4c-0.7-0.1-1.4-0.2-2-0.4c-0.3-0.1-0.7-0.2-0.7-0.6c0-0.4,0.4-0.5,0.7-0.6c1.1-0.3,2.2-0.6,3.4-0.6
		c4.5,0,9.1-0.2,13.6,0c6.5,0.3,13.1,0.1,19.6,0.2c11.9,0.1,23.9,0.1,35.8,0.4c5.5,0.1,11,0.1,16.5,0.2c5.5,0.2,11,0.3,16.6,0.6
		c6.2,0.3,12.4,0.6,18.6,1.1c4.5,0.3,9,0.9,13.4,1.4C613.7,297.2,614.1,297.3,614.4,297.6z"/>
	<path fill="#719C86" d="M320.9,422.5c-0.4-4.9-0.7-9.9-1.1-14.8c0-0.2,0-0.4,0-0.6c0.1-4.3-0.5-8.5-0.3-12.8c0-0.9-0.2-1.2-1.2-1.2
		c-4.3,0.1-8.3,1.4-12.4,2.5c-0.3,0.1-0.5,0.2-0.8,0.3c-1,0.3-1.7,0.3-1.5-1.1c0.1-0.8,0-1.7,0-2.5c0-0.1,0-0.1,0-0.2
		c4.7,0,9.3-1.1,14-1.7c3.6-0.5,7-1.7,10.5-2.3c1.2,0,2.4-0.3,3.5,0.1c0.5,0.2,1.1,0.4,1.4,0.9c2,0.7,4,0.6,6.1,0.7
		c1.3,0.1,2.6,0,4,0.3c0.4,9.2-0.2,18.3-0.7,27.4c-0.1,1.2,0.1,2.4,0.3,3.6c0.3,1.1-0.4,1.3-1.2,1.4c-0.9,0.1-1.8,0-2.6-0.5
		c-0.4-0.5-0.5-1.2-0.6-1.8c-0.7-4.2-1.1-8.5-1.1-12.8c0-4.2-0.5-8.5-0.3-12.7c0-1.1-0.3-1.6-1.5-1.6c-2.6,0.1-5.1-0.5-7.7-0.1
		c-1.1,0.2-1.7,0.5-1.8,1.8c-0.4,5.6-0.8,11.2-1.3,16.8c-0.2,2.3-0.2,4.6-0.3,6.9c-0.1,0.4-0.1,0.8-0.1,1.2
		c-0.1,1.9-0.4,2.4-2.3,3.1C321.4,422.9,321.1,422.9,320.9,422.5z"/>
	<path fill="#F3CC8E" d="M427.2,329c0.1,0,0.2,0,0.3,0c0.1,3.8,0,7.5-0.2,11.3c-0.1,1.2-0.5,1.8-1.7,1.8c-2.1-0.1-4.1-0.3-6.2-0.5
		c-0.7-0.1-1.5-0.2-2.2,0.1c-2.5,0.9-5.1,0.4-7.7,0.1c-4.4-0.5-8.9-0.9-13.3-1.3c-3.7-0.4-7.4-0.6-11.2-0.8
		c-0.9-0.1-1.4-0.5-1.5-1.5c-0.4-2.8-0.3-5.5-0.3-8.3c0-1.3,0.6-1.8,1.9-1.4c3.6,0.8,7.3,1.1,10.9,1.7c0.6,0.1,1.1,0.2,1.5,0.6
		c0.5,0.6,0.8,1.2,1.3,1.8c0.7,0.6,1.6,0.7,2.4,0.7c2.1,0,4.1,0,6.2,0c0.9,0,1.6-0.2,2.2-1c0.7-1.1,1.8-1.3,3-1.3
		c3.7,0,7.4-0.1,11,0C425.4,331.1,426.8,331.1,427.2,329z"/>
	<path fill="#E4C087" d="M427.2,296.9c0.6,0.6,1.1,0,1.7,0c4.5-0.3,8.9-0.7,13.4-0.6c0.8,0,1.6-0.3,2.5,0c1.6,0.5,2.2,1.6,1.8,3.2
		c-0.2,0.5-0.3,1.1-0.6,1.6c-0.8,1.3-1,2.7-0.9,4.2c0.2,2.9-0.7,3.7-3.7,3.8c-4.9,0.2-9.7,0.3-14.6,0c-0.4,0.4-1,0.5-1.5,0.5
		c-3.6-0.6-7.2,0.2-10.8,0c-0.7,0-1.4,0-2.1-0.1c-0.7-0.1-1.3-0.5-1.3-1.2c-0.1-3.2,0.1-6.4,0.4-9.6c0-0.3,0.2-0.5,0.4-0.7
		c1.5-0.7,3.1-0.6,4.7-0.7c3.1-0.1,6.1-0.1,9.2-0.6C426.2,296.7,426.7,296.6,427.2,296.9z"/>
	<path fill="#F3CC8E" d="M294.5,440.1c-0.1,0-0.2,0-0.3,0c-3.8-2.8-4.9-6.4-3.6-10.8c1.1-3.7,3.9-5.7,7.2-7.1
		c1.2-0.5,2.5-0.9,3.9-0.9c1.2,0.3,2.2,1.1,3.4,1.5c2.1,0.6,4.2,1.2,6.4,1.1c1.6,0,2,0.4,1.8,2c-0.6,3.6-0.6,7.2-0.6,10.9
		c0,2.1-0.2,2.5-2.3,3.2C305.2,441.7,299.8,441.5,294.5,440.1z"/>
	<path fill="#F3CC8E" d="M427.2,296.9c-1.9,0.6-3.9,0.7-5.8,0.7c-3.1,0.1-6.2,0.3-9.4,0.3c-0.7-0.4-0.7-1.2-0.9-1.9
		c-0.2-0.7-0.6-1.3-1.4-1.4c-2.6-0.7-5.2-0.4-7.8-0.2c-1.3,0.1-1.8,1-1.9,2.2c-0.1,0.8,0.1,1.6-0.8,2.1c-4.5,0-9,0.6-13.2-1.6
		c-0.6-0.3-1.3-0.5-1.6-1.2c-0.3-1.4-0.6-2.8,0.3-4.1c0.1-0.2,0.2-0.4,0.3-0.6c0.3-2.6,0.3-2.5,2.8-2.7c9.5-0.8,18.9-0.6,28.4-0.5
		c2.6,0,5.2,0.2,7.9,0.2c0.4,0,0.9,0.1,1.3-0.2c1.6,1,1.8,2.6,1.9,4.2C427.3,293.8,427.2,295.4,427.2,296.9z"/>
	<path fill="#CD7057" d="M385.9,220.2c3.3,2.2,4.4,4.9,3.2,9.4c-1.3,4.8-4,8.8-7.7,12.1c-3.6,3.2-7.7,5.8-12.1,8
		c-3.9,2-7.6,4.3-11.6,6.1c-0.3-0.6,0.2-1.1,0.5-1.5c5.8-8.4,11.6-16.7,18.2-24.5c2.6-3.1,5.5-6.1,8.3-9.1
		C384.9,220.3,385.3,219.9,385.9,220.2z"/>
	<path fill="#DDBA82" d="M350.8,314.1c2.3,1.3,4.6,2.8,7.2,3.5c1.6,2.2,3.8,3.7,6.1,5c0.6,0.3,1.2,0.6,1.6,1.1
		c2.2,2.2,5.1,3.1,7.9,4.2c0.7,0.3,1.5,0.4,2,1.1c0.1,0.3,0.1,0.6,0,1c-0.8,2.9,0.6,5,2.6,6.8c1.7,1.6,3.7,2.7,5.4,4.3
		c0.2,0.2,0.4,0,0.6,0.1c0.3,0.3,0.6,0.8,0.5,1.2c-0.2,0.5-0.8,0.2-1.2,0.3c-0.4,0-0.9,0.1-1.3-0.1c-4.1-0.1-7.7-1.7-11.3-3.3
		c-3.3-2.2-6.1-4.8-9-7.5c-6.7-6.2-12.7-13-18.3-20.1c-0.5-0.6-1-1.3-1.7-1.6c-2.7-1.3-5-3.3-7.5-4.9c-0.8-0.5-1.2-0.5-1.5,0.4
		c-0.3,0.9-0.5,1.9-1.3,2.5c-1.5-0.4-2-1.7-2.7-2.9c0.4-1.9,1.1-3.6,2-5.2c0.6-0.2,1.3-0.1,1.9,0c0.1,0,0.3,0.1,0.4,0.2
		c0.3,1,1,1.7,1.8,2.3c4.8,3.8,9.7,7.5,14.9,10.7C350.1,313.4,350.5,313.7,350.8,314.1z"/>
	<path fill="#C6C6C6" d="M544.9,384.8c-0.7,0.6-1.2,0.4-1.7,0.5c-4.8,0-9.6-0.1-14.4,0.1c-9.3,0.3-18.6,0.4-27.9,0.6
		c-4.6,0.1-9.1,0-13.7,0.2c-5.5,0.2-11,0.1-16.4,0.3c-10.4,0.4-20.8,0.2-31.1,0.1c-2.7,0-5.4,0-8.1-0.5c-0.4-0.1-0.8,0-0.9-0.4
		c-0.1-0.5,0.4-0.7,0.7-0.8c1.5-0.7,3.1-0.7,4.7-0.9c2-0.2,4-0.3,6.1-0.3c5.8-0.1,11.6-0.2,17.4-0.3c18.7-0.6,37.5-0.2,56.2-0.2
		c6.5,0,13.1,0.5,19.6,0.8C538.5,384.1,541.6,384.4,544.9,384.8z"/>
	<path fill="#C6C6C6" d="M463.3,142.3c-1.8,0.2-3.5,0.5-5.3,0.6c-5.7,0.4-11.5,0.9-17.2,1.2c-6.5,0.3-13,0.9-19.5,1.4
		c-5,0.4-10.1,0.7-15.1,1.1c-6.1,0.5-12.3,0.9-18.4,1.4c-5,0.4-10,0.7-15,1.1c-6,0.4-11.9,0.8-17.9,1.1c-5.8,0.3-11.5,0.6-17.3,0.4
		c-2-0.1-4,0-6.2-0.7c0.9-0.6,1.7-0.5,2.5-0.6c1.6-0.2,3.2-0.3,4.8-0.3c5.5-0.2,11-0.6,16.5-1.1c3.9-0.4,7.9-0.6,11.8-0.9
		c4.9-0.4,9.8-0.9,14.7-1.3c2.7-0.2,5.4-0.4,8.1-0.6c6.1-0.4,12.1-0.9,18.2-1.3c3.3-0.2,6.5-0.5,9.8-0.6c6.1-0.2,12.1-0.5,18.2-0.7
		c3.3-0.1,6.6-0.1,9.9-0.2c4.5-0.1,9-0.2,13.5-0.3C460.7,142.1,462,141.7,463.3,142.3z"/>
	<path fill="#C6C6C6" d="M661.2,220.2c-3.6,0-7.2,0.1-10.7,0c-6.2-0.1-12.4,0.2-18.5,0.4c-3.6,0.1-7.2,0-10.8,0.2
		c-5.6,0.4-11.3,0-16.9,0.3c-4.8,0.3-9.7,0.2-14.5,0.1c-3.2,0-6.4-0.1-9.6-0.5c-0.3,0-0.6-0.1-0.9-0.2c-0.6-0.2-1.2-0.4-1.1-1.2
		c0-0.6,0.5-0.9,1.1-1.1c1.9-0.7,3.8-0.6,5.7-0.7c1.6-0.1,3.3,0,5-0.1c12-0.3,24.1-0.3,36.1-0.2c5.2,0,10.5,0.2,15.7,0.6
		c6.3,0.4,12.6,0.8,18.8,1.9C660.8,219.7,661.1,219.6,661.2,220.2z"/>
	<path fill="#E4C086" d="M338.8,422.1c0.7,0.1,1.3,0.2,2,0.2c0.8,0,1.6,0,1.7-1c3.7,1.6,6,4.4,7.4,8c0.2,0.5,0.2,1.2,1.1,1.2
		c-0.2,0.2-0.7,0.2-0.6,0.8c0.5,4.7-1.7,7.7-5.8,9.6c-4.6,2.2-9.4,3.2-14.4,1.4c-2-0.7-4-1.6-5.2-3.6c1-0.5,1.9-0.1,2.8,0.1
		c3.1,0.6,6.1,1.2,9.3,1.1c1.9-0.1,2.1-0.3,2.4-2.1c0.8-4.2,0.2-8.3-1.1-12.4c-0.3-0.9-0.8-1.2-1.7-1.1c-3.3,0.5-6.7,0.7-10,1.1
		c-2.3,0.3-2.6,0-2.5-2.3c0.1-0.3,0.2-0.5,0.4-0.6c0.5-0.3,1-0.3,1.6-0.3c3.1,0.1,6.1-0.2,9.2-0.5
		C336.5,421.5,337.7,421.2,338.8,422.1z"/>
	<path fill="#C6C6C6" d="M538.2,346c1.4-0.2,2.5-0.4,3.6-0.4c14.6-0.4,29.1-0.4,43.7-0.2c6.2,0.1,12.4,0.1,18.7,0.2
		c4.9,0.1,9.8,0.3,14.8,0.6c6,0.4,12,0.9,18,1.4c0.3,0,0.7,0,0.8,0.4c-0.4,0.5-0.9,0.3-1.4,0.3c-3.6,0-7.1,0-10.7,0.1
		c-9,0.3-18.1,0.4-27.1,0.2c-7.3-0.1-14.6-0.1-21.8-0.3c-6-0.1-12-0.3-17.9-0.6c-4.2-0.2-8.5-0.4-12.7-0.6c-2.2-0.1-4.5-0.3-6.7-0.5
		C539,346.7,538.6,346.6,538.2,346z"/>
	<path fill="#F3CC8E" d="M426.7,317.6c-3.5,0.1-7.1,0.4-10.6,0.3c-1.5-0.1-3-0.4-4.5-0.3c-0.9,0.1-0.6-0.8-1-1.1
		c-0.6-0.3-0.7-1-1.3-1.3c-0.2-0.1-0.5-0.3-0.7-0.4c-2.6-0.2-5.3-0.3-8-0.4c-1.1,0-1.5,0.9-1.9,1.8c-0.6,2.1-0.6,2.1-2.9,1.9
		c-2.1-0.2-4.2,0-6.3-0.3c-1.7-0.3-3.2-1-4.6-1.7c-0.5-0.2-0.9-0.6-0.9-1.1c-0.1-1.4-0.2-2.9,0-4.3c0.1-0.8,0.8-0.9,1.5-1
		c4.4,0,8.8-0.2,13.2,0.4c0.8,0.3,1.1,1,1.5,1.6c0.4,0.5,0.8,0.7,1.4,0.8c2,0.5,4.1,0.6,6.2,0.4c1.1-0.1,2.1-0.4,2.7-1.4
		c0.6-0.8,1.4-1,2.3-1.1c4.4-0.1,8.7,0.1,13.1-0.1c0.3,0,0.5,0.1,0.8,0.3C426.7,313,426.7,315.3,426.7,317.6z"/>
	<path fill="#8C8A80" d="M385.9,220.2c-1.8,1.8-3.7,3.5-5.4,5.5c-4.5,5-8.7,10.2-12.7,15.7c-3.4,4.8-6.9,9.5-10.1,14.5
		c-1,0.9-1.6,2-2.3,3c-0.1,1-0.6,1.8-1.5,2.3c-0.7,0.9-1.4,1.8-1.9,2.8c0.1,0.8-0.6,1.3-0.9,1.9c-0.4,0.5-0.6,1.1-1.2,1.4
		c-1.4,1.3-2.3,3.1-3.4,4.7c-2.8,4.2-5.5,8.4-7.9,12.8c-0.8,0.2-1.3-0.2-1.8-0.8c-0.2-0.6,0.1-1.1,0.3-1.6c0.8-1.6,1.6-3.2,2.6-4.7
		c2.4-3.7,4.1-7.8,6.5-11.5c2.2-3.4,4.2-7,6.7-10.1c1.9-2.3,3.6-4.8,5.3-7.2c4.7-6.4,9.7-12.7,14.8-18.8c4.5-5.3,9.5-10.2,14.7-14.8
		c0.4-0.4,0.8-0.8,1.4-0.8c0.8,0.2,0.8,0.9,1.1,1.4C388.8,217.2,387.1,218.4,385.9,220.2z"/>
	<path fill="#F3CC8E" d="M310,278.9c-2.7-3.7-5.2-7.4-7.4-11.3c-1.3-1.5-0.4-2.3,0.8-3.3c1.2-1,2.5-1.9,3.8-2.6
		c1.4,0.9,2,2.4,2.8,3.7c3,4.9,6.5,9.3,9.6,14c1.7,2.6,3.6,5.1,5.3,7.8c-0.2,1.5-0.3,3-0.6,4.6c-0.6,0.6-0.8,0-1-0.3
		c-0.5-0.6-0.9-1.2-1.6-1.5c-2-1.5-4.2-1.9-6.6-1.7c-0.9-3-3-5.3-4.5-7.9C310.4,279.9,309.9,279.5,310,278.9z"/>
	<path fill="#F3CC8E" d="M331.3,308c0.4-1.2,0.9-2.3,1.3-3.5c0.3-0.8,0.6-0.6,1.1-0.3c1.4,1,2.7,2.2,4.3,3c4.5,2.1,7.1,6.1,10.1,9.7
		c1.6,1.9,3.1,3.7,4.8,5.5c5.3,5.7,10.8,11.1,17,15.9c0.3,0.2,0.5,0.6,0.8,0.9c-2.1-0.6-4-1.7-5.8-3c-0.4-0.3-0.8-0.8-1.4-0.7
		c-0.4-0.4-0.7-0.9-1.3-1.2c-4.5-2.7-8.6-6.1-12.8-9.3c-3-2.6-6.3-5-9.1-7.8c-2.4-2.4-5-4.7-7.2-7.4c-0.4-0.5-0.9-1.1-1.5-1.4
		C331.4,308.5,331.3,308.3,331.3,308z"/>
	<path fill="#E4C086" d="M294.5,440.1c3.6,0.3,7.2,0.7,10.8,0.5c2.2-0.1,4.2-0.9,6.2-1.6c0.6-0.2,0.7-0.8,0.7-1.4c0-1.8,0-3.7,0-5.5
		c-0.1-2.2,0.3-4.4,0.7-6.5c0.2-1.2-0.2-1.4-1.2-1.3c-2.9,0.2-5.6-0.5-8.3-1.7c-0.7-0.3-1.3-0.6-1.8-1.3c0.4-0.1,0.8-0.2,1.2-0.3
		c2.2,1.1,4.6,1.1,6.9,1.3c3.7,0.4,7.4,0.4,11,0.3c0.3,0,0.5,0,0.8,0c0.5,0.4,0.4,1,0.3,1.5c-0.4,1.8-0.4,3.7-0.4,5.6
		c0,0.9-0.1,1.7-0.6,2.5c0,1.6-0.3,3.1-0.5,4.6c-0.1,1-0.6,1.5-1.3,2.1c-3.7,2.4-7.9,3.4-12.2,4c-1.9,0.3-3.8,0.2-5.8,0
		C298.7,442.5,296.5,441.6,294.5,440.1z"/>
	<path fill="#A6A397" d="M389.3,214.4c-3.6,2.9-6.7,6.3-10,9.5c-3.9,3.8-7.3,7.9-10.7,12.1c-5.9,7.2-11.3,14.6-16.8,22.1
		c-3.1,4.2-5.8,8.6-8.2,13.2c-1.9,3.8-4.3,7.3-6.2,11.1c-0.2,0.5-0.4,0.9-0.6,1.4c-1.1,0.2-1.9-0.2-2.7-0.9
		c-0.2-0.7,0.1-1.3,0.4-1.8c3.1-5.6,6.5-11,10.2-16.1c0.4-0.5,0.8-1.1,1.2-1.7c0.9-1.4,1.8-2.7,2.7-4.1c0.5-0.6,0.8-1.4,1.6-1.8
		c4.5-6.4,9.1-12.9,13.6-19.2c3.4-4.7,7-9.2,10.9-13.5c2-2.2,4-4.4,6-6.6c2.2-1.9,4.1-4.1,6.5-5.9c0.5-0.4,1-0.9,1.7-1
		c0,0.5,0,1,0.3,1.4c0.2,0.6,0.2,1.2-0.2,1.7C389.3,214.2,389.3,214.3,389.3,214.4z"/>
	<path fill="#D1B07B" d="M383.7,341.2c0,0.4-0.2,0.4-0.5,0.2c-1.7-1.3-3.4-2.6-5.1-4c-2.4-2.1-4.2-4.8-2.7-8.4c-0.4-2-0.2-4,0.2-6
		c0.4-1,1.1-1,1.9-0.6c1.2,0.6,2.5,1.1,3.7,1.9c2.9,2,6.2,2.7,9.6,3.1c1.8,0.2,3.6,0.5,5.3,0.7c0.6,0.1,1.2,0.1,1.6,0.7
		c0.3,0.8,0.5,1.7-0.3,2.4c-0.3-0.5-0.8-0.5-1.3-0.6c-3.2-0.4-6.5-0.8-9.6-1.4c-2.8-0.5-2.8-0.6-2.8,2.2c0,2.3,0,4.5,0.2,6.7
		c0.1,0.8,0.4,1,1.1,1c5.4,0.1,10.7,0.8,16,1.1c3.9,0.3,7.7,0.9,11.6,1.3c0.9,0.1,1.7,0.1,2.6-0.1c0.6-0.2,1.3-0.3,1.9,0.1
		c-0.2,0.2-0.4,0.4-0.6,0.6c-0.5,0.9-1.4,0.8-2.2,0.7c-4.6-0.3-9.2-0.8-13.8-1.2c-4.6-0.4-9.2-0.7-13.8-1
		C385.8,340.8,384.7,340.7,383.7,341.2z"/>
	<path fill="#DDBA82" d="M324.8,286.9c-1.3-1.1-2.2-2.5-3-3.9c-3.1-5-6.9-9.6-10.1-14.6c-1.4-2.2-2.9-4.5-4.3-6.7
		c0.7-0.6,1.6-0.9,2.4-1.3c1.1-0.5,1.9,0.2,2.8,0.6c-0.1,0.2-0.1,0.4,0.1,0.6c4.4,5.6,8.3,11.7,12.4,17.5c0.7,1,1.5,1.9,2.2,2.8
		c0.6,0.3,1,0.8,1.2,1.4C327.2,284.6,326.1,285.9,324.8,286.9z"/>
	<path fill="#E5C187" d="M383.7,341.2c0-0.7,0.4-0.8,1-0.8c3.3,0,6.6,0.2,9.9,0.5c2.5,0.2,5,0.4,7.5,0.6c3.8,0.3,7.7,0.7,11.5,1
		c1,0.1,2,0.3,3-0.2c-0.6,2.4-1,2.7-3.5,2.8c-3.1,0.1-6-0.6-9-0.9c-0.5-0.1-1.1-0.1-1.6-0.1c-4-0.1-8,0-12-0.3
		c-2.8-0.2-5.6-0.7-8.4-1c0.8,0,1.5,0,2.5,0C384.1,342,383.9,341.6,383.7,341.2z"/>
	<path fill="#CD7057" d="M303.1,312.4c2.2-1.2,4.5-2.3,6.7-3.5c0.7-0.3,1.5-0.8,2,0c0.4,0.7,0.3,1.4-0.3,2.2
		c-2.6,3.4-4.7,7-6.3,10.9c-0.4,0.9-0.7,1.9-1,2.9c-0.2,0.6-0.3,0-0.5,0C303.7,320.7,303,316.6,303.1,312.4z"/>
	<path fill="#D2B17B" d="M426.6,310.8c-1.4,0.4-2.9,0.2-4.4,0.3c-3.2,0-6.4,0-9.7,0c-0.7,0-1.4,0.1-1.7,0.8c-0.5,1-1.5,1.5-2.5,1.6
		c-2.4,0.2-4.8,0.2-7.1-0.5c-0.6-0.2-1.2-0.5-1.5-1.1c0.4-0.4,0.9-0.3,1.4-0.3c2.2,0.1,4.4,0.1,6.6,0c1.6,0,2-0.4,2-2
		c0-1.6,0.1-3.2,0.3-4.8c-0.1-1.5-0.1-3,0-4.5c0.3-1.6,0-3.1-0.2-4.7c-0.1-0.5-0.2-0.9,0-1.3c1.1,0.2,1.2,1.1,1.5,1.9
		c0.2,0.6,0.3,1.1,0.4,1.7c-0.2,0.7-0.3,1.4-0.3,2.2c0.2,2.5-0.3,5-0.3,7.5c0,1.1,0.4,1.4,1.4,1.4c2.3-0.1,4.6,0.1,6.9-0.3
		c2.3-0.3,4.7,0.3,7,0.2C426.6,309.6,426.6,310.2,426.6,310.8z"/>
	<path fill="#D0AF7A" d="M419.8,284.4c-0.7,0.5-1.4,0-2.1,0c-4.4,0.1-8.9,0-13.3,0.1c-1.6,0-3.1-0.3-4.7-0.3
		c-5.4,0.1-10.8,0.3-16.3,0.7c-0.5,0-0.9-0.1-0.9-0.6c0-0.6,0.5-0.4,0.8-0.4c6.8-0.4,13.7-0.8,20.6-0.5c4.6,0.2,9.2,0.2,13.8,0.2
		c0.7,0,1.3,0.3,2,0.5C419.7,284.2,419.7,284.3,419.8,284.4z"/>
	<path fill="#EAC58B" d="M353.9,261.1c0.5-0.8,1-1.6,1.5-2.3c0.9,0.7,1.9,0.5,2.9,0.3c1.6-0.2,3.1-0.1,4.6,0.4
		c1.2,0.5,2.4,0.3,3.7,0c0.4,0.5,0.2,1.1,0.2,1.6c0,0.1-0.1,0.2-0.2,0.3c-1.8,0.5-3.6,0.3-5.4-0.4c-1-0.4-2,0-3,0.2
		C356.7,261.5,355.3,261.5,353.9,261.1z"/>
	<path fill="#E17B60" d="M366.6,261.2c-0.5-0.5-0.1-1.1,0-1.6c0.6-1.3,1.9-0.9,2.9-1c0.8-0.1,1.6-0.1,2.3-0.5c0.4-0.2,0.8-0.4,1.2,0
		c0.4,0.4,0.3,0.8,0.1,1.3c-0.2,0.5-0.4,0.9-0.6,1.4C370.5,261.1,368.5,261.5,366.6,261.2z"/>
	<path fill="#CD7158" d="M363.5,267.3c0,0.4,0,0.8-0.1,1.2c-0.2,0.9-0.8,1.2-1.5,0.7c-1.1-0.7-2.2-1.1-3.5-1.3
		c-0.7-0.1-1.3-0.4-1.4-1.3c0-0.1,0.1-0.2,0.1-0.2c1.9-1.2,3.9-0.9,5.9-0.6C363.8,266,363.7,266.7,363.5,267.3z"/>
	<path fill="#CD7159" d="M366.6,261.2c1.9-0.4,3.8-0.8,5.8-0.5c-0.1,0.8,0.2,1.8-0.4,2.5c-0.9,1-1.5-0.3-2.3-0.5
		c-1.1-0.3-2.4-0.1-3.2-1.2C366.5,261.4,366.5,261.3,366.6,261.2z"/>
	<path fill="#EFC98D" d="M349.9,267.2c0.2-0.6,0.5-1.1,0.9-1.6c1.2-0.5,2.4-0.1,3.6,0c0.9,0.5,1.8,0,2.7,0c0.4,0.3,0.2,0.7,0.1,1.1
		l-0.1,0c0,0-0.1,0-0.1,0c-0.4,0.1-0.8,0.2-1.1,0.5C353.9,267.6,351.9,268.1,349.9,267.2z"/>
	<path fill="#E17C60" d="M357.2,266.7c0-0.4-0.1-0.7-0.1-1.1c0.2-0.7,0.6-0.9,1.3-0.8c1.3,0.3,2.7,0.3,4-0.1
		c1.3-0.3,1.5-0.1,1.3,1.2c-0.1,0.4-0.2,0.9-0.3,1.3c0.1-0.9-0.3-1.2-1.2-1.2C360.6,266.2,358.8,266,357.2,266.7z"/>
	<path fill="#F3CD90" d="M543.4,210.8c0.1-0.5,0.2-0.9,0.3-1.4c0.7-0.5,1.4-1.3,2.4-0.5c0.6,0.4,0.8,1,0.6,1.7
		c-0.2,0.8-0.8,1.4-1.6,1.5C544.2,212.2,543.7,211.7,543.4,210.8z"/>
	<path fill="#F3CD90" d="M551.5,186.6c-0.3-1,0-1.8,0.8-2.4c0.1,0,0.3,0,0.4,0c1-0.1,1.7,0.2,2,1.2c0.3,0.9-0.3,1.5-1,1.9
		C552.7,187.8,552,187.5,551.5,186.6z"/>
	<path fill="#F3CD90" d="M542.6,221.5c0.1-0.5,0.2-1,0.3-1.6c1.3-0.8,2.3-0.7,2.7,0.4c0.3,0.9,0,1.8-0.9,2.2
		C543.7,222.9,542.9,222.6,542.6,221.5z"/>
	<path fill="#F2CD91" d="M540.4,233.5c0-0.1,0-0.2,0-0.3c0.3-0.4,0.5-0.8,0.3-1.4c0.7-0.2,1.4-0.7,2,0c0.4,0.5,0.9,1,0.6,1.8
		c-0.3,0.6-0.8,1.1-1.4,1.1C541,234.9,540.5,234.4,540.4,233.5z"/>
	<path fill="#F2CD90" d="M545.7,198.5c0.1-0.7,0.4-1.3,0.8-1.8c0.9-0.3,1.8-0.6,2.3,0.6c0.3,1-0.3,1.7-1.1,2.1
		C546.7,200,546.2,199.2,545.7,198.5z"/>
	<path fill="#F2CD90" d="M520.5,254c0.4-0.7,0.7-1.3,1.1-2c0.9-0.3,1.7-0.2,2.1,0.7c0.4,0.7-0.1,1.4-0.7,1.8
		C522.1,255.1,521.2,255.1,520.5,254z"/>
	<path fill="#F2CD91" d="M532.4,244c0.2-0.5,0.8-0.8,0.9-1.4c1-0.4,1.8-0.2,2.1,0.8c0.3,0.9-0.2,1.6-1,1.8
		C533.3,245.6,532.6,245.2,532.4,244z"/>
	<path fill="#E18065" d="M384.5,375.8c-1.4-2.5-2.4-5.2-3.5-7.8C383,370.2,384.3,372.8,384.5,375.8z"/>
	<path fill="#CE745B" d="M354.4,265.6c-1.2,0.6-2.4,0.2-3.6,0c0.4-0.6,0.8-1.1,1.1-1.7C352.8,264.4,353.7,264.9,354.4,265.6z"/>
	<path fill="#CD7057" d="M331.3,308c0.1,0.2,0.2,0.4,0.3,0.5c-0.5,1-0.6,2,0,2.9c0.4,0.6,0.3,1.3,0.3,2c-0.3,0.9-0.7,1.9-0.8,2.8
		c0,0.4-0.1,0.9-0.4,1.1c-1.5,1.3-1,2.9-0.9,4.5c0.2,2.3,0.5,4.6,0.3,7c-0.2,2.8-0.2,5.6,0.1,8.4c0.2,2.7,0.2,5.4,0,8.1
		c-0.1,2,0.1,4,0.2,6c0.3,3.1,0.7,6.1,1,9.2c0.6,5.4,0.6,10.8,1.3,16.2c0.3,2-0.1,4.1,0.4,6.2c0.5,0.6,0.5,1.3,0,1.9
		c0,1.4,0,2.8-0.1,4.3c-1.6-0.5-3.2-1.1-4.9-1c2.1-0.6,2.1-0.6,1.9-2.9c-0.5-5.1-1.1-10.2-1.6-15.3c-0.2-1.9-0.4-3.7-0.3-5.6
		c0.2-3.8-0.2-7.6-0.3-11.5c-0.1-4.5-0.3-8.9-0.6-13.4c-0.3-5.5-0.1-11.1-0.2-16.6c0-1.1,0.3-2.2,0.3-3.3c0-0.5,0.2-1-0.3-1.4
		c-0.4-0.5,0-1,0.2-1.4c0.2-0.4,0.4-0.8,0.6-1.3c0.9-2.1,0.9-2.1-0.9-3.6c-0.1-0.1-0.2-0.3-0.3-0.4c0.4-2.3,1-4.5,2.5-6.3
		C329.8,306.1,330.3,307.3,331.3,308z"/>
	<path fill="#CD7057" d="M310,278.9c1.9,2.4,3.4,5,5.1,7.6c0.3,0.5,0.8,1,0,1.5c-0.6,0.7-1.5,0.9-2.2,1.3c-1.2,0.8-2.3,1.6-3.3,2.6
		c-0.5,0.4-0.7,1.3-1.7,1.2c-0.3,0.7-0.9,1-1.7,1.2c-2,0.5-3.9,1.2-6.1,1c-1.7-0.1-2.4-0.8-2.5-2.5c-0.1-2.6,1.3-4.6,2.9-6.4
		c2.4-2.6,5-5,8-7C309,279.2,309.4,278.9,310,278.9z"/>
	<path fill="#EADAC6" d="M307.8,293c0.7-0.2,0.9-1,1.4-1.3c0.5,0.3,0.6,0.9,0.8,1.4c0.9,2.7,2.3,5.2,3.7,7.7c0.7,1.2,1,1.2,2,0.3
		c2-1.7,3.7-3.6,4.4-6.2c0.5-1.8,0.8-3.7,1.8-5.3c1.1,0.3,1.5,1.4,2.2,2.3c0.9,0.2,0.8,1,0.8,1.7c-0.2,1.6-0.2,3.3-0.7,4.9
		c-1.6,3.7-3.9,6.8-8,8c-0.8,0.2-1.7,0.5-2.2-0.6c-1.5-2.4-3-4.7-4.4-7.1C308.7,296.9,307.7,295.2,307.8,293z"/>
	<path fill="#81B29A" d="M318.3,320.2c-1.4-0.9-1.8-2.2-1.4-3.9c0.4-2.2,1.3-4.2,2.8-5.9c0.9-1,1.7-1.5,3-0.6c0.2,0.1,0.4,0,0.7,0.1
		c0.9-0.3,1.4,0.5,2.1,0.8c0.3,0.2,0.6,0.3,0.7,0.7c0.1,0.4-0.1,0.8-0.3,1.2c-1.7,2.8-3.8,5.3-6.5,7.2
		C319.1,320,318.8,320.2,318.3,320.2z"/>
	<path fill="#709984" d="M318.3,320.2c3.2-2.4,6-5.2,7.8-8.9c0.3-0.2,0.4,0,0.5,0.2c2.5,1.2,2.5,1.3,1.5,3.9
		c-0.4,0.9-0.8,1.8-1.2,2.8c-2.2,2.7-4.8,3.7-7.4,2.8C319.1,320.8,318.6,320.6,318.3,320.2z"/>
	<path fill="#CD7057" d="M314.2,305.8c0.6,0.5,1.3,0.5,2,0.3c3.5-0.9,5.5-3.5,7.2-6.4c0.2-0.4,0.4-0.7,0.6-1.1
		c1.1,0.3,1.6,1.2,2.1,2c-0.1,0.8,0,1.7-1,2.1c-0.4-0.3-0.6,0.1-0.7,0.3c-1.1,1.6-2.6,2.7-4,3.9c-1.4,1.2-3.1,1.7-4.8,1
		C314.6,307.6,313.7,307,314.2,305.8z"/>
	<path fill="#A7A397" d="M325,302.7c0.4-0.7,0.6-1.4,0.8-2.2c-0.2-1.3,0.3-2.2,1.3-3c1.1,0.2,1.8,0.9,2.2,1.9
		c-1.1,3.7-2.4,7.2-3.6,10.9c-0.1,0.3-0.2,0.5-0.5,0.7c-0.6-0.4-1.3-0.7-1.9-1.1C323.7,307.4,324.4,305.1,325,302.7z"/>
	<path fill="#F2CB8D" d="M333.1,384.9c0-0.6,0-1.2,0-1.9c0.6-0.6,1.3-1.2,2.3-0.8c0.7,0.3,1,1,1,1.8c0,0.8-0.3,1.6-1.1,1.9
		C334.2,386.4,333.6,385.7,333.1,384.9z"/>
	<path fill="#F2CB8D" d="M334.1,323.5c-0.1,0.9-0.5,1.6-1.6,1.8c-0.8,0.1-1.7-0.9-1.7-1.9c0-1.4,0.6-2.2,1.6-2.2
		C333.4,321.3,334.1,322.3,334.1,323.5z"/>
	<path fill="#F2CB8E" d="M330.8,342.7c0-1,0.9-2.1,1.7-2c1,0.1,1.6,0.9,1.6,1.9c0.1,1.1-0.7,1.9-1.7,1.9
		C331.3,344.5,330.8,343.8,330.8,342.7z"/>
	<path fill="#F2CB8D" d="M331.1,316.3c-0.5-1.2-0.1-2.1,0.8-2.8c0.8,0,1.5,0.1,1.9,0.9c0.5,0.8,0.4,1.6-0.2,2.3
		C332.7,317.5,331.9,317,331.1,316.3z"/>
	<path fill="#F2CB8D" d="M332.8,372.7c0.1-0.9,0.6-1.6,1.7-1.5c1,0.1,1.5,0.9,1.5,1.8c0,0.9-0.4,1.6-1.5,1.7
		C333.7,374.7,332.8,373.7,332.8,372.7z"/>
	<path fill="#F2CA8D" d="M334.5,352.9c-0.1,1-0.6,1.8-1.6,1.7c-0.9,0-1.6-0.7-1.6-1.7c0-0.9,0.5-1.7,1.5-1.7
		C333.8,351.2,334.4,351.9,334.5,352.9z"/>
	<path fill="#F2CA8D" d="M332.5,363.7c0-0.9,0.5-1.5,1.3-1.6c0.8-0.1,1.7,0.9,1.7,1.8c0,0.9-0.5,1.5-1.4,1.6
		C333.3,365.6,332.5,364.7,332.5,363.7z"/>
	<path fill="#F2CB8D" d="M332.7,330.9c1.1,0.1,1.4,0.6,1.4,1.6c0,1.1-0.6,1.7-1.6,1.7c-1,0-1.5-0.7-1.5-1.7
		C331.1,331.5,331.8,331,332.7,330.9z"/>
	<path fill="#FEEDD9" d="M340.7,246.2c-2.7,3.7-5.8,7.1-8.8,10.5c-3.9,0-6.4-2.2-8.3-5.4c-1.7-2.5-2.7-5.3-3.1-8.3
		c-0.6-4.5-0.3-9.1,0.3-13.6c0.3-1.8,0.6-3.7,2.2-5.1c0.7-0.2,1.1,0.2,1.6,0.6c6,5.1,12.5,9.6,20,12.4c0.4,0.1,0.8,0.3,1,0.7
		c-0.3,1.5-1.3,2.7-2.1,4C342.5,243.3,341.6,244.8,340.7,246.2z"/>
	<path fill="#63362A" d="M345.5,237.9c-8-2.6-14.8-7.3-21.1-12.7c-0.3-0.3-0.7-0.6-1-0.9c-0.4-0.2-0.7-0.4-0.6-0.9
		c0.7-0.8,0.7-2,1.7-2.5c2.4,2.5,5.1,4.7,8.1,6.4c1.5,0.9,3,1.5,4.6,2.2c-4.7-2.1-8.6-5.4-12.2-9.1c0.4-1.4,1.6-2.5,2.9-2.6
		c1.4,1.5,2.7,3.1,4.3,4.5c2.6,2.2,5.5,3.9,7.5,4.4c-3.7-1-7.2-4.4-10.4-8.1c-0.3-0.4-0.6-0.8-0.6-1.4c0.4-1,1.3-1.3,2.3-1.5
		c1.5,0.7,2.3,2.4,3.6,3.1c-1-0.9-2-2.1-3-3.3c0.8-0.9,1.9-1.1,3-1.1c2.6,2.7,5.6,5,8.8,6.9c-2.5-1.5-4.5-3.7-6.8-5.6
		c-0.4-0.4-0.9-0.7-1.4-0.9c-0.3-0.1-0.5-0.3-0.2-0.6c1.2-0.6,2.5-0.3,3.7-0.2c0.6,0.1,1.2,0.3,1.7,0.2c2,0.9,3.5,2.4,4.5,4.3
		c2.6,4.8,2.8,9.8,1.7,15C346.4,235.1,346.1,236.6,345.5,237.9z"/>
	<path fill="#EADAC6" d="M322.8,223.5c0.2,0.3,0.4,0.5,0.6,0.8c-1.5,1.3-1.8,3.2-2.2,4.9c-0.6,2.8-0.4,5.6-0.6,8.5
		c-0.2,4.4,0.7,8.6,2.7,12.6c0.1,0.3,0.2,0.6,0.3,0.9c-0.1,0-0.2,0-0.3,0c-0.5-0.2-0.8-0.6-1.1-1c-4-5.8-6.3-12.1-6.6-19.2
		c-0.2-3.2,0.3-6.4,1.8-9.4c0.4-0.9,0.8-1.9,1.8-2.4c0.2,0,0.5,0,0.6,0.2C320.8,220.8,322,222,322.8,223.5z"/>
	<path fill="#4B2A20" d="M322.8,223.5c-1.4-1.2-2.3-2.7-3.4-4.2c-0.3-0.6,0-1,0.4-1.4c3.6-4.3,8-6.8,13.8-6.1
		c2.4,0.5,4.8,1.1,6.9,2.5c-0.7,0.5-1.5,0.3-2.2,0.2c-1.1-0.2-2.2-0.4-3.3,0.1c-0.1,0.1-0.2,0.1-0.3,0c-1,0.3-2.1,0.5-3.1,1.1
		c-0.1,0.3-0.2,0.4-0.5,0.3c-0.8,0.5-1.7,0.6-2.2,1.4c-0.3,0.4-0.6,0.8-1.1,0.5c-1.2,0.5-1.8,1.7-2.8,2.5c0,0.3,0,0.7-0.5,0.6
		C323.8,221.8,323.9,223.1,322.8,223.5z"/>
	<path fill="#CD7058" d="M333.6,211.9c-5.2-0.3-9.3,1.8-12.8,5.5c-0.6,0.6-1.1,1.2-1.4,2c-2.1,2.4-3,5.4-3.2,8.5
		c-0.6,8.1,1.9,15.3,6.3,22c0.3,0.5,0.6,0.9,0.9,1.4c-1.1,0.1-1.6-0.8-2.1-1.5c-3.5-4.6-5.6-9.8-6.3-15.6c-0.5-4.3-0.2-8.5,1.4-12.6
		c0.8-2,2.2-3.6,3.8-5.1c1.8-1.6,3.6-3.1,5.9-3.9C328.6,211.6,331.1,211.2,333.6,211.9z"/>
	<path fill="#CD7057" d="M328.3,283.3c-0.5-0.3-1-0.7-1.1-1.4c0-1.3,0-2.6,0-3.9c0-4.1,0.2-8.3,0.6-12.4c0-0.3,0.2-0.6,0.3-0.9
		c1.1-0.2,1.9,0.2,2.5,1.1c0.2,0.7,0.2,1.4,0.2,2.1c0,4.2-0.1,8.5,0,12.7c0,0.7,0,1.4-0.4,2C329.8,283.3,329.2,283.6,328.3,283.3z"
		/>
	<path fill="#EDC78B" d="M330.3,265.7c-0.7-0.3-1.5-0.6-2.2-0.9c-1.9-1.5-2.9-3.4-3.3-5.7c-0.1-0.5-0.3-1.2,0.4-1.5
		c0.8-0.2,1,0.5,1.2,1c0.3,0.8,0.6,1.6,0.9,2.3c0.6,1.5,1.8,2.2,3.3,2.7c0.4,0.1,5.1,1.7,8,1.2c1.9-0.3,3.7-1,5.6-1.5
		c0.8-0.5,1.5-0.6,2.2,0.1c-0.3,0.6-0.6,1.2-1.1,1.6c-4,2-8.2,3-12.6,1.8C331.7,266.6,330.8,266.5,330.3,265.7z"/>
	<path fill="#ECC68B" d="M350.5,257.4c-0.3,0.7-0.9,1.3-1.3,1.9c-1.2,0.6-2.6,0.7-3.9,0.8c-1.3,0.6-2.6,1.2-3.9,1.6
		c-2.6,0.9-4.9,0.1-6-2.2c0-0.5,0-1,0.5-1.2c0.6-0.2,0.8,0.3,1,0.7c0.9,1.1,2.4,1.4,4.2,0.7c1.4-0.5,2.7-1.2,4-1.8
		C346.8,257.2,348.6,257.1,350.5,257.4z"/>
	<path fill="#CD7158" d="M345.2,260c1.2-0.8,2.5-0.9,3.9-0.8c-0.9,1.4-1.9,2.8-2.8,4.2c-0.7,0-1.5-0.1-2.2-0.1
		C344,262.1,344.9,261.2,345.2,260z"/>
	<path fill="#E17A5F" d="M350.8,314.1c-4-2-7.5-4.8-11.1-7.4c-2.1-1.5-4-3.2-6.1-4.8c-0.5-0.4-1-0.9-0.5-1.6c2-2.7,3.3-6,5.7-8.5
		c0.8-0.8,1.3-1.9,2.6-2.1c0.6,1.2,1.4,1,2.2,0.4c1.6-1.1,2-3.4,0.6-5.3c-1.2-1.6-0.8-2.5,0.2-3.9c1.6-2.3,2.8-4.9,4.4-7.1
		c0.6-0.9,0.9-0.9,1.5,0c2.4,3.9,4.1,8.2,5.4,12.6c0.7,2.2,1.1,4.5,1.7,6.7c0.2,0.7,0.1,1.1-0.4,1.6c-0.6,0.5-1.1,0.4-1.6,0.1
		c-2-1.1-3.7-2.6-5.8-3.5c-1.1-0.5-2.1-1.1-3.2-1.7c-0.5-0.3-1-0.5-1.5,0c-0.5,0.5-0.4,1.1-0.1,1.7c0.3,0.6,0.6,1.1,0.9,1.7
		c2.5,5.7,3.9,11.8,4.9,17.9C350.9,311.8,350.7,313,350.8,314.1z"/>
	<path fill="#EADAC6" d="M341.3,289.7c-2.9,2.5-4.9,5.6-6.7,8.9c-0.4,0.7-0.6,1.6-1.6,1.7c-0.1,0-0.2,0-0.3-0.1
		c-0.3-0.7,0.2-1.3,0.4-1.8c1.4-2.8,2-5.7,1.9-8.8c0-1.9-0.6-3.6-1.6-5.2c-0.4-0.7-1-1.1-1.9-1.2c-0.4-0.1-0.9,0-1.1-0.6
		c1.2-0.8,2.5-0.8,3.9,0.1c0.9,0.4,1.7,0.7,2.6,1.1c0.5,0.3,1.1,0.6,1.6,0.9c0.9,0.8,1.9,1.6,2.7,2.5
		C342,288.1,342.2,288.9,341.3,289.7z"/>
	<path fill="#F3CC8E" d="M324.4,423.1c0.1,2.2,0.1,2.1,2.2,1.8c3.5-0.4,7.1-0.7,10.6-1.2c0.6-0.1,1.2-0.1,1.4,0.8
		c0.9,3.3,1.8,6.6,1.6,10.2c-0.1,1.5-0.4,3-0.6,4.5c-0.2,1-1,1.1-1.8,1.1c-3.2,0.2-6.4-0.4-9.6-1c-1.1-0.2-2.2-0.4-3.4-0.7
		c-1-1-1.3-2.2-1.3-3.6c0-1,0-2.1,0-3.1c-0.4-1.5-0.2-3-0.2-4.5c0-1.1,0.2-2.1,0.3-3.2C323.8,423.8,323.8,423.3,324.4,423.1z"/>
	<path fill="#D1B17B" d="M377.1,292.5c0.2-1.9-0.3-3.9,0.3-5.8c0,0,0.1,0.1,0.1,0.1c0.5,0.5,0.4,1.1,0.4,1.7c0,0.7,0.3,1.1,1.1,1.1
		c1.8,0,3.6,0,5.4-0.4c0.6,0.9,0.1,1.9,0.3,2.8c0,1.4,0,2.8,0,4.1c-0.2,0.2-0.5,0.2-0.8,0.1c-2-0.8-4.2-1.4-6-2.7
		C377.4,293.3,376.9,293.1,377.1,292.5z"/>
	<path fill="#BA9C6D" d="M384.3,289.1c-0.6,1-1.7,0.6-2.5,0.8c-1.1,0.2-2.2,0-3.3,0.1c-0.8,0-1.2-0.3-1.1-1.1c0.1-0.7,0-1.5,0-2.2
		c0.5-0.5,0.9-0.1,1.4,0.1C380.6,287.6,382.4,288.4,384.3,289.1z"/>
	<path fill="#D1B07B" d="M409.7,315.2c0.5,0.3,0.7,0.8,0.8,1.4c0.2,3.8-0.3,7.6-0.3,11.5c0,0.9,0.2,1.2,1.2,1.3
		c4,0.4,8,0.3,11.9-0.3c1.2-0.2,2.5,0,3.7,0c0,2.9,0.3,2.5-2.5,2.5c-4.1,0-8.3,0-12.4,0c-0.9,0-1.7,0.1-2.2,1.1
		c-0.3,0.6-0.9,1.1-1.5,1.1c-3,0-6,0.3-9.1-0.2c-0.6-0.1-0.9-0.4-1.2-0.8c0.4-0.5,0.9-0.4,1.4-0.3c2.4,0.3,4.8,0.1,7.2,0.1
		c1.7,0,2.1-0.5,1.9-2.1c-0.3-2.4,0-4.8,0.2-7.1c0-1.5-0.1-3.1,0.1-4.6c0.3-0.7,0.1-1.4,0.2-2C409.3,316,409.3,315.5,409.7,315.2z"
		/>
	<path fill="#B99C6D" d="M414.2,324.1c0,0.7-0.3,1-1,1.1c-0.6,0-0.9-0.3-0.9-0.8c0-0.6,0.3-1.1,1-1.1
		C413.9,323.2,414.2,323.6,414.2,324.1z"/>
	<path fill="#BB9D6E" d="M431.3,324.3c0,0.7-0.6,0.9-1.1,1c-0.5,0.1-0.8-0.2-0.8-0.7c0-0.6,0.4-1,1-1.1
		C431,323.4,431.2,323.9,431.3,324.3z"/>
	<path fill="#BA9D6E" d="M422.2,324c0,0.5-0.3,1-0.9,1.1c-0.4,0-0.8-0.2-0.8-0.8c0-0.6,0.3-1.1,1-1.1
		C422,323.1,422.2,323.5,422.2,324z"/>
	<path fill="#BD9F70" d="M441.2,323.6c-0.2,0.4-0.3,0.9-0.8,0.9c-0.4,0-0.7-0.2-0.7-0.7c0-0.5,0.3-0.8,0.8-0.9
		C440.9,322.9,441.2,323.1,441.2,323.6z"/>
	<path fill="#81B29A" d="M324.4,422.6c-0.7-1.2-0.1-2.6-0.8-3.8c-0.2-4.3,0.3-8.6,0.7-12.9c0.3-2.7,0.4-5.4,0.6-8.1
		c0.1-1.4,0.2-2.8,0.3-4.3c0-0.5,0.1-0.8,0.7-0.8c2.3-0.2,4.6-0.5,6.9-0.1c1.1,0.2,2.2,0.1,3.3,0.1c0.8,0,1.1,0.3,1,1.1
		c0,0.1,0,0.3,0,0.4c0.1,5.2,0.1,10.3,0.3,15.5c0.2,3.9,0.4,7.8,1.3,11.6c0.1,0.3,0,0.6,0,0.8C334,422,329.2,422.8,324.4,422.6z"/>
	<path fill="#E17A5F" d="M409.4,323.2c-0.1,1.6-0.1,3.3-0.2,4.9c0,0.6,0,1.1,0,1.7c0.3,2.9,0.1,3.1-2.7,3.1c-2.7,0-5.4,0.1-8.1-0.3
		c-0.4-0.4-0.7-0.8-0.9-1.4c0-0.8,0-1.7,0-2.5c-0.3-0.4-0.3-0.8,0.1-1.1c0.7,0.1,1.3,0.1,1.9-0.2c0.6-0.3,1.2-0.8,1.8-0.1
		c0.1,0.3,0.1,0.6,0.2,0.9c0.7,1.9,2.3,0.5,3.4,0.9c0.8,0.3,1-0.3,1-1c0-1.1-0.1-2.1,0.1-3.2c0-0.2,0.1-0.4,0.2-0.6
		C407.2,323.8,408.2,323.2,409.4,323.2z"/>
	<path fill="#B99C6D" d="M414.6,302.7c0.6,0.2,1,0.5,0.9,1.1c-0.1,0.6-0.4,0.9-1,0.9c-0.6,0-0.9-0.2-0.8-0.8
		C413.6,303.2,414,302.9,414.6,302.7z"/>
	<path fill="#B99C6D" d="M422.2,304.3c-0.6,0-0.8-0.3-0.8-0.7c0-0.6,0.4-1,1-1.1c0.5-0.1,0.8,0.3,0.8,0.7
		C423.2,303.9,422.7,304.2,422.2,304.3z"/>
	<path fill="#BB9E6F" d="M431.6,303c-0.1,0.5-0.3,0.9-0.8,0.9c-0.5,0-0.8-0.3-0.8-0.9c0-0.5,0.2-0.9,0.8-0.9
		C431.3,302.2,431.6,302.5,431.6,303z"/>
	<path fill="#BB9D6E" d="M438.9,301.9c0.5,0,0.8,0.3,0.8,0.8c0,0.6-0.4,0.9-1,0.9c-0.4,0-0.9-0.1-0.8-0.7
		C437.9,302.3,438.2,301.9,438.9,301.9z"/>
	<path fill="#E4C087" d="M377.1,292.5c0.8,0.9,1.9,1.4,3,1.9c1.4,0.7,3,1.2,4.5,1.7c3.1,1.4,6.3,2.5,9.8,2.3
		c1.6-0.1,3.3-0.3,4.9,0.2c0.6,0.7,0.4,1.5,0.5,2.3c0.1,1.1-0.1,2.3-0.1,3.4c0.1,1.5,0,3.1-0.6,4.5c-0.4,0.4-1,0.5-1.5,0.5
		c-2.1,0-4.2,0.1-6.3-0.3c-1.7-0.3-3.5-0.2-5.2-0.3c-2.7,0-5.2-0.7-7.4-2.3c-0.6-0.4-1.2-0.9-1.5-1.5c-2.7-1.3-1.9-3.9-2.1-6
		c-0.2-1.7,0.1-3.5,0.2-5.2C375.2,292.5,376.1,292.4,377.1,292.5z"/>
	<path fill="#E17A5F" d="M399.3,304.4c0-1.9,0-3.9,0-5.8c0.3-0.6,0.2-1.2,0.3-1.8c0.1-1.9,0.5-2.6,2.3-2.8c2.7-0.2,5.5-0.6,8.2,0.4
		c0.7,1.9,1,3.8,0.6,5.8c-0.9,0.8-1.9,1.4-3.2,0.8c-0.3-0.4-0.3-0.9-0.2-1.3c0.4-1.8,0.4-1.9-1.5-1.9c-2.7,0-2.7,0-3,2.7
		c-0.1,0.6,0,1.2-0.2,1.8c-0.5,0.8-1.8,0.3-2.1,1.4C400.2,304.1,399.9,304.5,399.3,304.4z"/>
	<path fill="#FEEDD9" d="M330.5,282.7c2.7,0.1,4.2,1.5,4.8,4.5c0.9,4.7-0.1,8.9-2.5,13c-0.7,0.1-1.3,0-2-0.2
		c-0.7,0.2-1.2-0.1-1.6-0.7c-0.7-0.6-1.3-1.1-2-1.7c-1.7-0.8-2.4-2.3-2.5-4.1c0-0.6-0.1-1.2-0.5-1.7c-0.2-1.7,0.2-3.3,0.6-5
		c0.9-1.5,2.1-2.7,3.6-3.6c0.6-0.2,1.1-0.4,1.7-0.6C330.2,282.6,330.3,282.6,330.5,282.7z"/>
	<path fill="#8D8A80" d="M329.2,299.4c0.5,0.2,1.1,0.5,1.6,0.7c-0.4,1.8-1.3,3.4-1.8,5.1c-0.8,2.1-1.5,4.2-2.3,6.4
		c-0.2-0.1-0.4-0.2-0.5-0.2c-0.3-0.1-0.6-0.2-0.8-0.3c0-1.3,0.6-2.4,1-3.6c0.7-2.3,1.5-4.5,2.3-6.8
		C328.7,300.2,328.7,299.7,329.2,299.4z"/>
	<path fill="#E4C087" d="M397.8,327.6c-0.3,0.3-0.2,0.7-0.3,1.1c-3.5-0.3-6.9-0.9-10.3-1.4c-3.7-0.6-6.4-3.1-9.7-4.5
		c-0.5-0.2-1-0.7-1.5,0.1c-0.1-0.4,0.1-0.9-0.3-1.1c-1.2-0.5-1-1.4-1.1-2.4c-0.1-2.3-0.2-4.6-0.3-6.9c-0.1-1.8,0.2-2.1,1.9-1.7
		c0.5,0.1,0.6-0.1,0.8-0.4c1.6,1.7,3.7,2.5,5.6,3.6c0.6,0.4,0.9,0.2,0.9-0.5c0-1-0.1-1.9,0.1-2.9c0.1-0.4,0.2-0.8,0.7-0.9
		c0.4-0.1,1-0.2,1,0.5c-0.8-0.1-1.2,0.2-1.1,1.1c0,0.1,0,0.3,0,0.4c0.1,1.2-0.6,2.9,0.3,3.6c1.2,1.1,2.9,1.7,4.6,2.1
		c2.7,0.6,5.4,0,8.1,0.6c0.5,0.1,0.9-0.1,0.9-0.7c0-0.4-0.1-0.8,0.2-1.2c0.7,0.7,0.4,1.5,0.4,2.3c-0.1,2-0.6,4-0.5,6
		C398.2,325.4,398.6,326.6,397.8,327.6z"/>
	<path fill="#D1B07B" d="M385.4,310.2c-1-0.6-1.4-0.2-1.4,0.9c0,1.3,0,2.6,0,4.1c-2.4-1.2-4.6-2.3-6.6-3.7c-0.3-0.2-0.3-0.7-0.4-1
		c0-1.8,0-3.7,0-5.5c0.6,0.4,1.2,0.8,1.8,1.2c2.4,1.6,5.1,2.2,7.9,2.2c4-0.1,8,0.9,12.1,0.5c0.1,0.1,0.2,0.2,0.3,0.3
		c0.1,0.5,0.1,0.9-0.3,1.3C394.4,310.1,389.9,310.2,385.4,310.2z"/>
	<path fill="#E17A5F" d="M397.9,324.3c-0.2-2.8,0.6-5.5,0.5-8.3c0.8-1.9,1.2-2.2,4-1.9c1.8,0.2,3.7,0.2,5.5,0.2
		c0.8,0,1.5,0.1,1.9,0.8c-0.1,1.1,0.2,2.3-0.3,3.4c-1.2,0.2-2.2,0.6-2.3,2.1c0,0.4-0.3,0.7-0.7,0.2c-0.4-0.9-0.1-1.8-0.4-2.7
		c-1.1-0.6-2.3-0.3-3.5-0.2c-0.7,0.1-0.7,0.6-0.7,1.1c-0.1,1.2,0.2,2.5-0.2,3.7c-0.1,0.1-0.2,0.2-0.3,0.3c-1.2-0.9-2.3-0.6-3,0.8
		C398.3,324,398.2,324.3,397.9,324.3z"/>
	<path fill="#E17A5F" d="M398.9,310.5c0-0.5,0-0.9,0-1.4c0.8-0.8,1.6-1.5,2.9-1.1c0.4,0.8,1.1,1.1,2,1c1-0.1,2.2,0.5,3.1-0.4
		c0.3-0.9-0.1-1.9,0.4-2.7c0.9-0.7,1.9-1.3,3.2-0.9c-0.3,1.9-0.2,3.8-0.2,5.6c0,1-0.6,1.6-1.6,1.6c-3-0.1-6,0.3-8.9-0.3
		C399.5,311.4,399.2,310.9,398.9,310.5z"/>
	<path fill="#FEEDD9" d="M322,289.7c-1.1,4.7-2.1,9.4-6.6,12.3c-0.5,0.3-1,0.7-1.4,0c-2-3.3-4-6.5-4.8-10.3c1.6-1.7,3.5-3.1,5.8-3.7
		C317.6,287.4,320,287.9,322,289.7z"/>
	<path fill="#E17A5F" d="M330.5,282.7c-0.2,0-0.3,0-0.5,0c0.3-0.5,0.3-1.1,0.3-1.6c0-5.1,0-10.3,0-15.4c4.2,1.7,8.4,1.7,12.6-0.1
		c0.7-0.3,1.4-0.6,2.3-0.5c-3.3,5.1-6.7,10-9.6,15.3c-0.4,0.8-0.8,1.6-1.2,2.3C333.1,282.7,331.8,282.1,330.5,282.7z"/>
	<path fill="#D47259" d="M410.5,304.9c-1,0.2-1.9,0.8-3,0.8c-0.5-0.4-0.4-1-0.4-1.6c0-0.5,0-1,0-1.5c0-0.6-0.1-1.2,0.4-1.6
		c1-0.3,2-0.6,3-0.8C410.6,301.8,410.5,303.4,410.5,304.9z"/>
	<path fill="#F2CC8F" d="M324.7,293.6c0.5,1.6,1.4,2.9,2.5,4.1c-0.7,0.8-0.9,1.9-1.4,2.9c-0.6-0.7-1.3-1.3-1.9-2
		C324.2,296.9,324.4,295.3,324.7,293.6z"/>
	<path fill="#8D4E3C" d="M327.8,218c0.4-0.2,0.6-0.6,1.1-0.5c2.9,4,6.5,7.3,11.1,9.2c0.5,0.2,1.1,0.4,1.6,0.7
		c-1.9,0.1-3.7-0.6-5.3-1.5c-3.3-1.8-6-4.3-8.3-7.3C327.8,218.4,327.8,218.2,327.8,218z"/>
	<path fill="#8D4E3C" d="M324.5,221c0.2-0.2,0.4-0.4,0.5-0.6c0.2,0.1,0.5,0.2,0.7,0.4c3.5,3.6,7.5,6.6,12,9
		c-1.7-0.2-3.2-0.9-4.6-1.7c-2.9-1.6-5.6-3.5-7.9-5.9C324.9,221.8,324.5,221.6,324.5,221z"/>
	<path fill="#8D4E3C" d="M334.7,214.7c0.1,0,0.2,0,0.3,0c0.4,0,0.8-0.1,1.2,0.2c2.7,2.5,5.3,5,8.7,7.2c-1.4-0.1-2.1-0.7-2.8-1.2
		c-2.5-1.4-4.7-3.2-6.7-5.2C335,215.4,334.7,215.1,334.7,214.7z"/>
	<path fill="#8C4D3B" d="M331.1,216.1c0.2-0.1,0.4-0.2,0.5-0.3c0.7-0.1,0.9,0.5,1.3,0.9c1,1,1.7,2.4,3.1,3
		C333.7,219.3,332.5,217.6,331.1,216.1z"/>
	<path fill="#D47259" d="M406.7,321c0.2-0.3,0.2-0.6,0.2-0.9c0.1-1.2,1.2-2,2.4-1.8c0,0,0.1,0.2,0.1,0.2c0,1.6-0.1,3.1-0.1,4.7
		c-1,0.4-1.8,1.2-2.9,1.1c-0.5-0.5-0.1-1-0.2-1.6C406.3,322.1,406.2,321.5,406.7,321z"/>
	<path fill="#E0BC84" d="M406.4,324.8c0,1.4,0,2.7,0,4.1c0,0.5-0.1,0.9-0.8,0.8c-1.1-0.3-2.3-0.1-3.4-0.1c-1,0-1.5-0.1-1.1-1.3
		c0.1-0.4,0-0.8,0-1.2c-0.4-0.4-0.4-0.9-0.1-1.4c1.5-1,3.3-1,5-1.1C406.1,324.6,406.3,324.7,406.4,324.8z"/>
	<path fill="#D37259" d="M401.2,325.7c0,0.5,0,0.9-0.1,1.4c-0.8,0.4-1.6,0.7-2.4,1.1c-0.7,0.4-0.9,0.1-0.9-0.6c0-1.1,0-2.2,0.1-3.3
		c0.1-1.2,0.9-1.8,2-2.3c1-0.4,1.5-0.3,1.3,0.9c-0.3,0.6-1,0.3-1.4,0.7c0.4,0.5,1.3,0.2,1.6,0.9
		C401.6,324.9,401.5,325.3,401.2,325.7z"/>
	<path fill="#B7986B" d="M401.1,324.3c-0.8-0.1-2,0.3-2.1-0.7c0-1.2,1.4-0.5,2.1-0.8c0.1,0,0.2,0,0.2,0c0.5-0.4,1.1-0.4,1.7-0.4
		c1.2,0,2.4-0.4,3.5,0.4c-0.1,0.5-0.1,0.9-0.2,1.4c0,0.2-0.1,0.3-0.1,0.5c-0.1,0-0.2,0-0.3,0c-0.9-0.5-1.9,0-2.8,0
		C402.5,324.7,401.8,324.9,401.1,324.3z"/>
	<path fill="#D37359" d="M401.7,308c-0.9,0.4-1.8,0.7-2.7,1.1c0-0.1,0-0.2-0.1-0.3c0.1-1.5,0.3-3,0.4-4.4c0.3-0.2,0.8-0.3,0.8-0.8
		c0.7-0.3,1.4-0.2,2.1,0.2c0.3,0.4,0.3,0.8,0.3,1.2C402.4,306,402.7,307.2,401.7,308z"/>
	<path fill="#BA9C6E" d="M396.1,303c0.5,0,0.8,0.3,0.8,0.8c0,0.5-0.4,0.8-0.9,0.8c-0.5,0.1-0.8-0.3-0.7-0.7
		C395.3,303.4,395.6,303,396.1,303z"/>
	<path fill="#E4C087" d="M407.6,301.1c0,0.5-0.1,1.1-0.1,1.6c-1.3,0.4-2.5,0.5-3.7-0.3c-0.6-1.3-0.2-2.5,0.2-3.7
		c0.2-0.8,1.7-1.1,3-0.7c1,0.3,0.8,1,0.6,1.8C407.5,300.1,407.6,300.6,407.6,301.1z"/>
	<path fill="#D3B17C" d="M407.5,299.7c0.2-1.3-0.6-1.5-1.6-1.4c-0.9,0.1-1.9-0.2-1.7,1.3c0.1,0.9-0.4,1.9-0.2,2.8
		c-0.6,0.5-1.1,0.5-1.7,0c0.1-1.4,0.2-2.8,0.3-4.2c0-0.6,0.3-0.8,0.9-0.8c0.9,0,1.7,0,2.6,0C408,297.4,408.1,297.7,407.5,299.7z"/>
	<path fill="#B8996B" d="M402.2,302.4c0.6,0,1.1,0,1.7,0c1.2,0.1,2.4-0.1,3.5,0.3c0,0.5,0,0.9,0,1.4c-0.1,0.1-0.3,0.1-0.4,0
		c-1.3-0.3-2.5-0.3-3.8-0.2c-0.5,0-0.9,0.2-1.3-0.2c-0.6,0-1.3,0.1-1.9-0.3C400.2,302,401.4,302.6,402.2,302.4z"/>
	<path fill="#B99C6D" d="M395.3,323c-0.1,0.6-0.3,1.1-1,1.1c-0.5,0-0.7-0.2-0.7-0.7c0-0.6,0.3-1.1,0.9-1.2
		C395.1,322.1,395.3,322.5,395.3,323z"/>
	<path fill="#E4C087" d="M406.6,322.9c-1.2,0-2.4,0-3.5,0c-0.9-1.5-0.5-3-0.3-4.5c0.1-0.6,0.6-0.7,1.2-0.7c0.9,0,1.8,0,2.7,0
		c0,1.1,0,2.2,0.1,3.3C406.7,321.6,406.7,322.3,406.6,322.9z"/>
	<path fill="#D4B17C" d="M406.7,317.7c-0.8,0.4-1.7,0.3-2.6,0.3c-0.8,0-1.1,0.3-1.1,1c0,1.3,0,2.6,0,4c-0.6,0-1.1,0-1.7,0
		c0-1.5,0.1-2.9,0-4.4c0-0.8,0.2-1.2,1.1-1.1C403.9,317.6,405.3,317,406.7,317.7z"/>
	<path fill="#E4C087" d="M407.2,304.1c0.1,0,0.2,0,0.2,0c0,0.5,0,1.1,0.1,1.6c0,1.1,0,2.2,0,3.3c-1.2,0.4-2.4-0.1-3.6,0
		c-0.5,0-0.8-0.3-0.8-0.8c0-1.3-0.2-2.6,0.6-3.7C404.8,303.8,406,303.8,407.2,304.1z"/>
	<path fill="#D3B17C" d="M403.9,304.7c-0.6,1.1-0.1,2.4-0.5,3.5c-0.2,0.4,0.3,0.6,0.7,0.6c1.1,0.1,2.3,0.2,3.4,0.3
		c-1.7,0.6-3.5,0.2-5.2,0.2c-0.7,0-0.6-0.8-0.6-1.3c0.4-1,0.2-2,0.3-3C402.6,304.4,403.2,304.1,403.9,304.7z"/>
	<path fill="#F2CA8D" d="M331.4,272.6c0-0.9,0.3-1.5,1.2-1.4c0.9,0,1.4,0.6,1.5,1.5c0,0.8-0.4,1.5-1.3,1.5
		C331.8,274.1,331.4,273.4,331.4,272.6z"/>
	<path fill="#F2CA8D" d="M332.1,277.8c0.8,0.2,1.4,0.5,1.3,1.3c-0.1,0.7-0.5,1.2-1.3,1.2c-0.7-0.1-1-0.5-1-1.2
		C331.1,278.3,331.5,278,332.1,277.8z"/>
	<path fill="#937B56" d="M401.1,324.3c1.3,0,2.6,0,3.9,0c0.4,0,1-0.2,1.1,0.5c-1.6,0.3-3.3,0.6-4.9,0.9
		C401.2,325.2,401.2,324.8,401.1,324.3z"/>
	<path fill="#987F59" d="M403.9,304.7c-0.6,0.1-1.3,0.2-1.9,0.3c0-0.4,0-0.7-0.1-1.1c1.4-0.6,2.8-0.3,4.2-0.3c0.4,0,1-0.1,1.1,0.5
		C406.1,304.3,405,304.5,403.9,304.7z"/>
	<path fill="#76A18C" d="M413.9,216.9c3.7,0.5,7.4,1,11,1.5c2,0.3,4.1,0.5,6.1,0.7c4.1,0.4,8.2,0.8,12.3,1.3
		c3.9,0.5,7.9,0.9,11.9,1.5c4.2,0.6,8.4,1.6,12.6,2.3c4,0.7,8,1.2,12,1.8c3.8,0.6,7.5,1.1,11.3,1.6c2.8,0.4,5.6,0.6,8.3,0.9
		c3.3,0.4,6.6,0.8,10,1.2c3.8,0.5,7.5,0.9,11.3,1.6c4.4,0.7,8.8,0.9,13.3,1.3c1.9,0.2,3.9-0.1,5.8,0.3c0.3,0.1,0.5,0.1,0.7,0.3
		c0.1,0.1,0,0.2,0,0.3c-3.7,0.9-6.3,3-7.3,6.7c-0.2,0.8-0.4,1.6,0.2,2.4c0.3,0.8-0.2,1.1-0.9,1.4c-4.1-1-7.3,0.4-9.8,3.6
		c-1,1.3-1.2,2.8-1,4.4c0.2,0.9-0.3,1.6-1.1,2c-8.5,1.2-16.9,0-25.3-1.5c-6-1.1-12-1.6-18-2.3c-14.4-1.7-28.6-4.4-42.3-9.3
		c-9-3.2-17.8-6.6-26.3-10.9c-7-3.5-12.9-8.5-18.4-14.1c-0.6-0.4-1.1-0.9-1.1-1.7c0.1-0.1,0.2-0.2,0.4-0.3c0.8-0.3,1.7-0.2,2.5,0
		c3.9,1,8,1,12,1.5c2.7,0.3,5.5,0.6,8.2,0.9C412.8,216.3,413.5,216.4,413.9,216.9z"/>
	<path fill="#78A48E" d="M389.3,214.1c0-0.6-0.2-1.2,0.2-1.7c4.6-2.9,9.5-5.1,14.6-6.9c13-4.6,26.1-8.5,39.5-11.8
		c7-1.7,14.2-3,21.3-4.1c5.8-0.8,11.5-1.6,17.3-2.2c3.2-0.3,6.3-0.4,9.5-0.6c7.5-0.5,15-0.1,22.5-0.2c3-0.1,6,0.4,9.2,0.9
		c-1.8,0.8-3.5,0.4-5.2,0.7c-4.7,1-9.5,0.4-14.2,0.6c-5,0.3-9.9,0.2-14.9,0.6c-4.9,0.4-9.9,0.9-14.8,1.6c-7.5,1-15,2.1-22.4,3.6
		c-7.4,1.5-14.7,3.4-21.9,5.4c-9,2.5-17.8,5.3-26.6,8.3c-0.4,0.1-0.9,0.2-1.3,0.7c1.3,0.1,2.4-0.4,3.6-0.6
		c7.9-1.7,15.8-3.1,23.7-4.3c4.2-0.7,8.3-1.6,12.5-2.1c4.7-0.6,9.4-1.3,14.2-1.8c5.2-0.6,10.5-1,15.7-1.6c3.4-0.4,6.9-0.4,10.3-0.6
		c5.4-0.3,10.7-0.6,16.1-0.9c6.3-0.3,12.6-0.2,18.9-0.1c4.2,0.1,8.5,0.4,12.7,1.6c-0.4,0-0.9,0-1.3,0c-7.4,0.4-14.9,0.5-22.4,0.6
		c-4.2,0.1-8.5,0.2-12.7,0.5c-4.7,0.3-9.4,0.8-14.1,1c-2.9,0.2-5.8,0.4-8.7,0.6c-3.7,0.3-7.4,0.6-11.1,1.1c-2.8,0.3-5.6,0.6-8.3,0.9
		c-4.4,0.5-8.7,1.1-13.1,1.7c-5,0.7-10,1.6-14.9,2.4c-6,0.9-11.9,2-17.9,3.2c-0.9,0.2-1.9,0-2.8,0.6c1.3,0.2,2.6-0.2,3.9-0.3
		c3.6-0.3,7.1-0.6,10.7-0.8c3.8-0.3,7.6-0.7,11.4-1c2.7-0.2,5.4-0.5,8.1-0.6c5.9-0.3,11.7-0.8,17.6-0.9c1.9,0,3.9-0.2,5.8-0.2
		c5.9,0,11.9-0.1,17.8,0c4,0.1,8,0.4,12,0.7c3.9,0.3,7.9,0.7,11.8,1.2c7.6,0.9,15.1,1.9,22.5,3.7c1.5,0.3,3,0.5,4.5,1.5
		c-1.5,0-2.6-0.5-3.7-0.5c-6.8,0.2-13.3-1.5-19.9-2.2c-4.4-0.5-8.8-1.1-13.3-1.5c-4.4-0.4-8.9-0.6-13.3-0.9
		c-6.6-0.4-13.3-0.2-19.9-0.2c-4.4,0-8.8,0.3-13.2,0.5c-4.4,0.2-8.8,0.5-13.2,0.8c-5.4,0.4-10.8,0.9-16.2,1.3
		c-3.1,0.2-6.2,0.4-9.3,0.6c-2.3,0.2-4.6,0.4-6.8,0.7c2.2,0.2,4.5,0.5,6.7,0.6c4.9,0.3,9.7,0.7,14.5,1.1c4.2,0.4,8.5,0.9,12.7,1.2
		c5.5,0.3,11.1,0.8,16.6,1.4c3.9,0.4,7.8,0.7,11.6,1.1c4.9,0.6,9.8,1.1,14.7,1.8c5.3,0.8,10.7,1.6,16,2.6c5.5,1,11,2,16.5,3.2
		c2,0.4,4.1,0.8,6.1,1.5c-2.2-0.1-4.5-0.2-6.7-0.3c-0.5,0-0.9-0.2-1.4-0.2c-4.5,0.3-8.8-0.8-13.1-1.5c-5.6-0.9-11.2-1.9-16.8-2.7
		c-4.8-0.6-9.5-1.3-14.3-1.9c-3.1-0.4-6.3-0.6-9.4-0.9c-3.1-0.3-6.2-0.7-9.3-1c-2.5-0.2-4.9-0.4-7.4-0.6c-3.5-0.3-7-0.6-10.5-1
		c-3.1-0.4-6.3-0.7-9.4-0.9c-0.9,0-1.9-0.8-2.8-0.1c-2.8-0.3-5.6-0.6-8.4-0.9c-2.3-0.2-4.5-0.6-6.8-0.7c-2-0.1-3.9-0.2-5.8-0.8
		C391.7,214.1,390.5,214.1,389.3,214.1z"/>
</g>
</svg>
